<?xml version="1.0" encoding="utf-8"?>
<!-- Generator: Adobe Illustrator 26.3.1, SVG Export Plug-In . SVG Version: 6.00 Build 0)  -->
<svg version="1.1" id="ART" xmlns="http://www.w3.org/2000/svg" xmlns:xlink="http://www.w3.org/1999/xlink" x="0px" y="0px"
	 viewBox="0 0 1920.5 436.2" style="enable-background:new 0 0 1920.5 436.2;" xml:space="preserve">
<style type="text/css">
	.st0{fill:url(#SVGID_1_);}
</style>
<linearGradient id="SVGID_1_" gradientUnits="userSpaceOnUse" x1="960.2" y1="-593" x2="960.2" y2="-932.1" gradientTransform="matrix(1 0 0 -1 0 -486)">
	<stop  offset="0" style="stop-color:#FF2F97"/>
	<stop  offset="1" style="stop-color:#FF4226"/>
</linearGradient>
<path class="st0" d="M1863.5,135.7c-27.6,10-57,19.9-87.4,29.4c-38,11.9-77.7,23.3-118,33.7c-104.6,27.1-210.6,48.2-317.5,63.2
	c-64.2,9-129.7,16.1-194.5,20.8c-34.8,2.6-70.2,4.5-105.1,5.8c-26.8,1-53.9,1.6-80.8,1.9c-26.9-0.3-54-0.9-80.8-1.9
	c-34.9-1.3-70.2-3.3-105.1-5.8C709.5,278,644,271,579.8,262c-107-15-213-36.1-317.5-63.2c-40.3-10.5-80-21.8-118-33.7
	c-30.4-9.5-59.8-19.4-87.4-29.4C10,118.7-15.8,107.1-16,107v24.2v313.5v1.4h1.7l0,0h1949l0,0h1.7v-1.4V131.2V107
	C1936.2,107.1,1910.5,118.7,1863.5,135.7z"/>
</svg>
