<?xml version="1.0" encoding="utf-8"?>
<!-- Generator: Adobe Illustrator 26.3.1, SVG Export Plug-In . SVG Version: 6.00 Build 0)  -->
<svg version="1.1" id="Capa_1" xmlns="http://www.w3.org/2000/svg" xmlns:xlink="http://www.w3.org/1999/xlink" x="0px" y="0px"
	 viewBox="0 0 106.6 107.2" style="enable-background:new 0 0 106.6 107.2;" xml:space="preserve">
<style type="text/css">
	.st0{fill:#FF2100;}
</style>
<path id="Icon_ionic-ios-close-circle" class="st0" d="M53.3,3.7C25.7,3.7,3.4,26,3.4,53.6s22.3,49.9,49.9,49.9s49.9-22.3,49.9-49.9
	C103.2,26,80.9,3.7,53.3,3.7C53.3,3.7,53.3,3.7,53.3,3.7z M65.9,71.7L53.3,59L40.7,71.7c-1.5,1.5-3.9,1.5-5.4,0
	c-1.5-1.5-1.5-3.9,0-5.4l12.6-12.6L35.2,41c-1.5-1.5-1.5-3.9,0-5.4s3.9-1.5,5.4,0l12.6,12.6l12.6-12.6c1.5-1.5,3.9-1.5,5.4,0
	c1.5,1.5,1.5,3.9,0,5.4L58.7,53.6l12.6,12.6c1.5,1.5,1.5,3.9,0,5.4C69.9,73.2,67.5,73.2,65.9,71.7C66,71.7,66,71.7,65.9,71.7z"/>
</svg>
