<?xml version="1.0" encoding="utf-8"?>
<!-- Generator: Adobe Illustrator 26.3.1, SVG Export Plug-In . SVG Version: 6.00 Build 0)  -->
<svg version="1.1" id="Capa_1" xmlns="http://www.w3.org/2000/svg" xmlns:xlink="http://www.w3.org/1999/xlink" x="0px" y="0px"
	 viewBox="0 0 333.5 301.4" style="enable-background:new 0 0 333.5 301.4;" xml:space="preserve">
<style type="text/css">
	.st0{fill:#FF9300;}
</style>
<g>
	<path class="st0" d="M315.2,45.4c0-27.1-15.1-42.3-42.1-42.4c-71,0-142,0-212.9,0C33.6,3,18.3,18.3,18.3,44.9
		c0,52.3,0,104.8,0,157.1c0,27,15.3,42.1,42.3,42.3c16.5,0,32.9,0,50.5,0c0,14.7,0,28.2,0,41.9c0,5-0.5,11,5.4,12
		c4.1,0.7,9.7-0.7,13.1-3.2c20.9-15.1,41.2-31.1,62-46.4c3.4-2.5,8.3-4.1,12.6-4.3c22.7-0.4,45.5-0.2,68.1-0.2
		c27.7,0,42.8-15.1,42.8-42.4C315.2,149.7,315.2,97.6,315.2,45.4z M274.9,216.8c-24.5,0-49.1-0.5-73.5,0.4c-7.2,0.2-15.3,3.1-21.4,7
		c-13.8,8.8-26.6,19.2-41.4,30.2c0-3.8,0-5.6,0-7.4c-0.7-19.1-11.7-30-30.9-30c-16.5-0.2-33.1,0-49.6,0c-9.5,0-12.4-3.1-12.4-12.6
		c0-53.6,0-107.3,0-160.9c0-9.5,2.9-12.6,12.4-12.6c72.3,0,144.6,0,216.8,0c9.9,0,12.8,2.9,12.8,12.9c0,53.4,0,106.8,0,160.2
		C287.7,213.9,284.8,216.8,274.9,216.8z"/>
	<path class="st0" d="M219.2,69.5c-3.6,0.5-7.2,3.8-10.1,6.7c-20.1,20-40.1,40.1-60.8,60.8c-2.7-2.5-4.9-4.5-6.8-6.5
		c-6.8-6.7-13.3-13.7-20.3-20.1c-9-8.1-21.8-4.7-23,6.5c-0.5,4.5,2.3,10.4,5.6,14.2c9.9,11,20.5,21,30.9,31.3
		c10.2,10.1,16.5,10.1,26.8-0.2c22.3-22.3,44.6-44.4,66.7-66.7c2.9-2.9,6.1-6.5,6.7-10.1c0.5-4-0.5-9.7-3.2-12.4
		C228.9,70.1,223.1,69,219.2,69.5z"/>
</g>
</svg>
