<?xml version="1.0" encoding="utf-8"?>
<!-- Generator: Adobe Illustrator 26.3.1, SVG Export Plug-In . SVG Version: 6.00 Build 0)  -->
<svg version="1.1" id="Capa_1" xmlns="http://www.w3.org/2000/svg" xmlns:xlink="http://www.w3.org/1999/xlink" x="0px" y="0px"
	 viewBox="0 0 225.4 225.4" style="enable-background:new 0 0 225.4 225.4;" xml:space="preserve">
<style type="text/css">
	.st0{fill:#68FF5C;}
</style>
<g id="Icon_feather-check-circle" transform="translate(-1.497 -1.473)">
	<g id="Trazado_5010">
		<path class="st0" d="M114.2,226C114.2,226,114.2,226,114.2,226C52.4,226,2.3,175.8,2.3,114.1C2.4,52.4,52.5,2.3,114.2,2.3
			c0,0,0,0,0.1,0c15.8,0,31.1,3.3,45.5,9.7c5.1,2.3,7.4,8.3,5.2,13.4c-2.3,5.1-8.3,7.4-13.4,5.2c-11.8-5.3-24.3-7.9-37.2-7.9
			c0,0,0,0-0.1,0c-24.4,0-47.4,9.5-64.7,26.8c-17.3,17.3-26.8,40.3-26.8,64.7c0,50.5,41,91.6,91.5,91.6c0,0,0,0,0.1,0
			c50.4,0,91.5-41,91.5-91.5v-9.4c0-5.6,4.6-10.2,10.2-10.2s10.2,4.6,10.2,10.2v9.4C226,175.9,175.9,226,114.2,226z"/>
	</g>
	<g id="Trazado_5011">
		<path class="st0" d="M114.2,144.8c-2.7,0-5.3-1.1-7.2-3l-30.5-30.5c-4-4-4-10.4,0-14.4c4-4,10.4-4,14.4,0l23.3,23.3l94.5-94.6
			c4-4,10.4-4,14.4,0c4,4,4,10.4,0,14.4L121.4,141.9C119.5,143.8,116.9,144.8,114.2,144.8C114.2,144.8,114.2,144.8,114.2,144.8z"/>
	</g>
</g>
</svg>
