<?xml version="1.0" encoding="utf-8"?>
<!-- Generator: Adobe Illustrator 26.3.1, SVG Export Plug-In . SVG Version: 6.00 Build 0)  -->
<svg version="1.1" id="Capa_1" xmlns="http://www.w3.org/2000/svg" xmlns:xlink="http://www.w3.org/1999/xlink" x="0px" y="0px"
	 viewBox="0 0 333.5 301.4" style="enable-background:new 0 0 333.5 301.4;" xml:space="preserve">
<style type="text/css">
	.st0{fill:#FF9300;}
</style>
<path class="st0" d="M331.1,176.1L280.7,29.5c0,0,0-0.1,0-0.1c-0.1-0.1-0.1-0.3-0.2-0.4C272.4,6.6,247.6-5.4,225,2.3L29.5,69.6
	c0,0,0,0-0.1,0C6.9,77.5-5.3,102.2,2.2,124.9c0,0.1,0.1,0.2,0.1,0.3c0,0.1,0,0.1,0.1,0.2L52.8,272c6.3,18.1,23.4,29.5,41.6,29.5
	c4.7,0,9.5-0.8,14.1-2.4L304,231.8C326.7,223.9,338.9,198.9,331.1,176.1z M41.3,103.7l195.3-67.3c1.4-0.5,2.9-0.5,4.2-0.2l-77,106
	l-126-36.1C38.7,105,39.9,104.2,41.3,103.7z M292.2,197.8L96.9,265c-4.1,1.4-8.6-0.8-10-4.8L47.6,146.3L166,180.3
	c1.6,0.5,3.3,0.7,5,0.7c5.7,0,11.1-2.7,14.6-7.4l72.4-99.6l39.2,113.8C298.5,191.9,296.3,196.4,292.2,197.8z"/>
</svg>
