<?xml version="1.0" encoding="utf-8"?>
<!-- Generator: Adobe Illustrator 26.3.1, SVG Export Plug-In . SVG Version: 6.00 Build 0)  -->
<svg version="1.1" id="Capa_1" xmlns="http://www.w3.org/2000/svg" xmlns:xlink="http://www.w3.org/1999/xlink" x="0px" y="0px"
	 viewBox="0 0 333.5 301.4" style="enable-background:new 0 0 333.5 301.4;" xml:space="preserve">
<style type="text/css">
	.st0{fill:#FFCE00;}
</style>
<path id="Icon_metro-warning" class="st0" d="M166.7,29.8l123.8,246.7H43L166.7,29.8L166.7,29.8z M166.7,3
	c-6.4,0-12.7,4.3-17.6,12.9L23.1,267.2c-9.7,17.2-1.4,31.2,18.3,31.2h250.8c19.7,0,27.9-14.1,18.3-31.2l0,0L184.3,15.9
	C179.5,7.3,173.1,3,166.7,3L166.7,3z M185.2,243c0,10.2-8.3,18.5-18.5,18.5c-10.2,0-18.5-8.3-18.5-18.5c0-10.2,8.3-18.5,18.5-18.5
	l0,0C176.9,224.5,185.2,232.8,185.2,243C185.2,243,185.2,243,185.2,243L185.2,243z M166.7,206.1c-10.2,0-18.5-8.3-18.5-18.5v-55.4
	c0-10.2,8.3-18.5,18.5-18.5c10.2,0,18.5,8.3,18.5,18.5v55.4C185.2,197.8,177,206.1,166.7,206.1C166.8,206.1,166.8,206.1,166.7,206.1
	z"/>
</svg>
