<?xml version="1.0" encoding="utf-8"?>
<!-- Generator: Adobe Illustrator 26.3.1, SVG Export Plug-In . SVG Version: 6.00 Build 0)  -->
<svg version="1.1" id="Capa_1" xmlns="http://www.w3.org/2000/svg" xmlns:xlink="http://www.w3.org/1999/xlink" x="0px" y="0px"
	 viewBox="0 0 333.5 301.4" style="enable-background:new 0 0 333.5 301.4;" xml:space="preserve">
<style type="text/css">
	.st0{fill:#FF9300;}
</style>
<g id="Icon_material-person-outline">
	<path class="st0" d="M166.7,36.3c21.7,0,39.4,17.6,39.4,39.4c0,21.7-17.6,39.4-39.4,39.4c-21.7,0-39.4-17.6-39.4-39.4c0,0,0,0,0,0
		C127.4,54,145,36.4,166.7,36.3 M166.7,205.1c55.7,0,114.4,27.4,114.4,39.4v20.6H52.4v-20.6C52.4,232.5,111.1,205.1,166.7,205.1
		 M166.7,0.7c-41.4,0-75,33.6-75,75s33.6,75,75,75s75-33.6,75-75S208.1,0.7,166.7,0.7z M166.7,169.5c-50.1,0-150,25.1-150,75v56.3
		h300v-56.3C316.7,194.6,216.8,169.5,166.7,169.5z"/>
</g>
</svg>
