<?xml version="1.0" encoding="utf-8"?>
<!-- Generator: Adobe Illustrator 26.3.1, SVG Export Plug-In . SVG Version: 6.00 Build 0)  -->
<svg version="1.1" id="Capa_1" xmlns="http://www.w3.org/2000/svg" xmlns:xlink="http://www.w3.org/1999/xlink" x="0px" y="0px"
	 viewBox="0 0 225.4 225.4" style="enable-background:new 0 0 225.4 225.4;" xml:space="preserve">
<style type="text/css">
	.st0{fill:#FF9300;}
</style>
<path id="Icon_material-access-time" class="st0" d="M112.6,0C50.3,0.1-0.1,50.6,0,112.8c0.1,62.2,50.6,112.6,112.8,112.6
	c62.2-0.1,112.6-50.5,112.6-112.7C225.4,50.5,175,0,112.8,0C112.7,0,112.7,0,112.6,0z M112.7,202.9c-49.8,0-90.2-40.4-90.2-90.2
	s40.4-90.2,90.2-90.2s90.2,40.4,90.2,90.2S162.5,202.9,112.7,202.9z M118.3,56.4h-16.9V124l59.2,35.5l8.5-13.9l-50.7-30.1V56.4z"/>
</svg>
