<?xml version="1.0" encoding="utf-8"?>
<!-- Generator: Adobe Illustrator 26.3.1, SVG Export Plug-In . SVG Version: 6.00 Build 0)  -->
<svg version="1.1" id="_xAE_" xmlns="http://www.w3.org/2000/svg" xmlns:xlink="http://www.w3.org/1999/xlink" x="0px" y="0px"
	 width="1076.2px" height="418.4px" viewBox="0 0 1076.2 418.4" style="enable-background:new 0 0 1076.2 418.4;"
	 xml:space="preserve">
<style type="text/css">
	.st0{fill:#FFFFFF;}
	.st1{fill-rule:evenodd;clip-rule:evenodd;fill:#B11116;}
	.st2{fill-rule:evenodd;clip-rule:evenodd;fill:#ED1C24;}
	.st3{fill-rule:evenodd;clip-rule:evenodd;fill:#FFFFFF;}
	.st4{fill-rule:evenodd;clip-rule:evenodd;}
	.st5{fill:#E1251B;}
	.st6{fill:#001689;}
	.st7{fill:#FAB81C;}
</style>
<g>
	<path id="Contorno_Blanco" class="st0" d="M567.3,243c-3.5-9.3-9-17.7-17-24.6c-0.4-1-1.2-1.8-2.2-2.3
		c-20.6-11.4-43.4-17.9-67.7-20.6c10.4-18.9,16.4-40.6,16.4-63.7c0-19.9-7.3-38-20.1-51c-1.7-1.7-3.5-3.3-5.4-4.9l0,0
		c1.5,0.4,2.7,0.8,3.4,1.1c0.4,0.1,0.7,0.2,0.8,0.3c0.2,0.1,0.2,0.1,0.2,0.1l16.6,6l-35.1-45l-1.8-0.4c-7.7-1.6-15.2-2.8-22.3-3.6
		c-0.4-1.5-1.1-3.9-2.1-6.5c-1.8-4.6-4.5-10.3-9-14.6l-0.6-0.5l-0.7-0.3C403.9,4.4,385,0,365.2,0c-72.8,0-131.8,59-131.8,131.8
		c0,26.6,7.9,51.3,21.4,72c-35.9-6.9-72.2-12.3-108.7-12.3c-38.1,0-76.5,5.9-114.8,22.1c-1,0.4-1.9,1.2-2.4,2.1
		C28.7,216.1,0.1,265.1,0,323.5c0,21.2,3.8,43.6,14.3,65.3c0.5,1.1,1.5,2,2.7,2.5c30.8,12.5,64.1,17.9,98.5,17.9
		c45.9,0,93.7-9.5,140.2-24.2c64.3,10.9,127.7,24.8,183.8,24.8c37.6,0,72-6.3,100.9-24.5c0.8-0.5,1.4-1.2,1.8-1.9
		c0.1-0.1,7.6-14.6,15.2-35.2c7.6-20.7,15.2-47.6,15.2-73.1C572.5,263.9,571.1,253,567.3,243z"/>
	<path id="Sombra" class="st1" d="M545.7,220.6c-175.4-97-526.8,166-526.8,166C206.8,463.1,496.6,266.5,545.7,220.6z"/>
	<path id="Red" class="st2" d="M33.2,218.3c173.6-73.5,348.9,68.7,512.4,2.5c53.6,42.5-8.1,160.2-8.1,160.2
		c-121.5,76.6-352.8-63.2-518.7,5.6C-19.1,308.3,33.2,218.3,33.2,218.3z"/>
	<g id="Frito_Lay">
		<g>
			<path class="st0" d="M349.3,342.2c-0.1,0.9,1.5,1.5,4,1.9c6.3,1.1,11.5,1.8,18.2,1.2c1.3-0.1,2.9-0.4,4.1-1.2
				c0,0-3.4,16.1-7.2,16.8c-3.1,0.5-23.7-2.1-34.5-4.9c-3.7-1-5.6-2.1-5.6-3.1c0.7-12.5,10.7-47.8,14.8-71.5
				c2.3-12.2,1.7-15.2-1.8-18.6c6.1-2.4,20.8-1.3,21.9,1.4c1.4,3.9,0.4,10-2.4,22.8C357.7,301.6,350.3,334,349.3,342.2z"/>
			<path class="st0" d="M491.5,291.3c0.7,4.6,1.7,14.3-0.7,27c-3.3,18.2-8.8,26.6-8.8,26.6s-4.8-41.7-13.6-51.8
				c-2.6-3-17.6,6.8-17.6,6.8c3.1,1.8,4.8,6.6,9.5,21.2c4,12.4,8,32.7,8.8,39.7c0.1,2.7-7.1,12.1-10,15.2c-3.4,3.1-7.9,3.6-11.1,2.2
				c-0.1,2.3,2.9,9,7.6,12.6c6.8,5.9,12.4,0.1,18-6c12.3-14,23.8-33.8,31-54.1c3.7-10,5.2-21.6,5.3-30.8c0.1-5-0.2-9.9-1.2-12.7
				C508.3,286.4,491.5,291.3,491.5,291.3z"/>
			<path class="st0" d="M445.5,358.8c-3.7,3.6-8.8,6.2-13.5,7.3c-2.3,0.5-5.1,0.9-7.5-0.2c-2.5-1.2-3.8-6.6-4.3-10.6
				c-3.4,6.6-10.4,9.9-15.8,10.2c-12,0.7-20.7-6-21.7-19.7c-1-15.6,2.9-28.9,10-37.5c6.5-8.2,13.9-12.4,24.7-13.6
				c2.6-0.3,5.8-0.4,9.1-0.2c5.9,0.2,12,1.2,14.4,2.7c0.4,0.3-4.6,45.1-3.1,53.2C438.6,354.5,439.8,356.7,445.5,358.8z M422.4,309.2
				c-1.2-0.6-3.3-0.8-4.9-0.7c-4.2,0.4-7.4,0.8-11.7,6.5c-4.9,7.1-6.6,18.3-5.9,27.4c0.5,6,2.9,8.4,6.8,8.1
				c5.3-0.4,10.5-6.4,11.9-11.3C418.5,339.2,423.5,309.8,422.4,309.2z"/>
		</g>
		<g>
			<path class="st0" d="M130.8,232.2l-5.7,16.5c-1-0.8-2.4-1.2-3.6-1.3c-9.4-0.5-26.7,3.1-27.6,5.3c-2.2,4.7-4.5,15.8-5.3,19
				c5.5-1.9,17.1-4,24.1-4.2l-4,14.4c-8.6,0.1-22.6,3.9-23.1,5.9c-0.8,3.4-1.6,8.9-2.7,17.2c-1.6,11.5-2.8,20.9,0.3,23.3
				c-4.3,2.2-17.8,5.1-20.1,2.3c-2.1-2.8,4.7-70.2,17.5-90.4C82.8,236.5,115.1,229.8,130.8,232.2z"/>
			<path class="st0" d="M142,253.6c2.9,1.1,2.8,5.5,2.1,10.9c6.8-8.9,20.7-10.6,24.2-8.6l-4.7,16.4c-7.3-4.9-16.5-0.3-19.5,6.9
				c-3.9,10.7-10.3,42.2-4.4,44.2c0,0-17.8,2.8-19.6-1c-2.4-5,5.2-35.7,7-43.2c1.7-7.6,0.3-15.2-2.3-17.8
				C124.8,261.4,139.2,252.6,142,253.6z"/>
			<path class="st0" d="M289.1,288.4c5.2,0.6,8.1,3.1,7.7,11c-0.6,12.9-7.5,33.2-19.1,32c-5-0.6-8.3-3.6-8-10.1
				C270.2,311.1,276.9,287,289.1,288.4z M292,274.8c-23.2-1.6-39.4,18.5-40.4,44.2c-0.6,15.4,6.9,24.7,22,25.7
				c26.7,1.8,39.8-20.8,40.6-44.6C314.9,285.1,306.7,275.9,292,274.8z"/>
			<g>
				<path class="st0" d="M197.8,257.9c5.5,7-17.6,63.7-9.6,70.3c0,0-16.8,0.5-19.6-2.7c-4.8-5.3,14.2-56.2,10.2-62.2
					C178.8,263.3,196.1,255.8,197.8,257.9z"/>
				<path class="st0" d="M204.6,233c0.3,5.9-4,10.6-9.8,10.9c-5.7,0.3-10.4-4-10.8-9.8c-0.3-5.6,4.1-10.5,9.7-10.7
					C199.4,222.9,204.3,227.4,204.6,233z"/>
			</g>
			<path class="st0" d="M253.4,268.8l-13.7-2.7c1.2-5,2.5-12.7,2.6-15.7c0.2-3.2,0-6-1.2-6.3c-2.3-0.7-17.4,4.8-17,5.7
				c0.9,2.2-0.7,9.4-1.3,13.3c-2.2-0.3-5.5-0.7-7.2-0.9c-0.9,1.6-6.7,12.6-6.7,12.6c3.1,0.3,8.7,1,11.6,1.6
				c-0.8,3.8-10.5,40.9-10.6,46.5c-0.1,6.8,2.9,12.7,13.3,11.4c8-0.9,12.4-4,15.9-6.5c-4.6-1.1-12-2.4-10.1-12.9
				c0.6-3.2,5-22.5,8.4-35.5l12.2,2.3L253.4,268.8z"/>
		</g>
	</g>
	<g id="Carita">
		<ellipse class="st3" cx="370.9" cy="134.6" rx="111.5" ry="113.8"/>
		<path class="st2" d="M290.1,90.7c0-9.4,7.7-17.1,17.1-17.1s17.1,7.7,17.1,17.1s-7.7,17.1-17.1,17.1
			C297.8,107.8,290.1,100.1,290.1,90.7z"/>
		<path class="st2" d="M418.7,139c0-9.4,7.7-17.1,17.1-17.1s17.1,7.7,17.1,17.1s-7.7,17.1-17.1,17.1
			C426.4,156.1,418.7,148.4,418.7,139z"/>
		<path class="st4" d="M291.8,123.5c16.7,16.3,65.2,52.3,134.6,49.5C392.7,236.4,279.1,206.7,291.8,123.5z M285.1,107.6
			c20.1,19.7,77.2,66.4,158,56.7C392.2,269.7,255.8,204,285.1,107.6z M348.9,132.2c0,0,16.4-9.5,28.5,6.4c5.8,11.1-4,9.9-4,9.9
			s-5.2-11.4-23.6-7.8C343.9,138.1,348.9,132.2,348.9,132.2z M382.7,124.1c0-7.5,6.1-13.6,13.6-13.6s13.6,6.1,13.6,13.6
			c0,7.5-6.1,13.6-13.6,13.6C388.8,137.7,382.7,131.7,382.7,124.1z M332.3,107.5c0-7.5,6.1-13.6,13.6-13.6s13.6,6.1,13.6,13.6
			s-6.1,13.6-13.6,13.6S332.3,115,332.3,107.5z M341.8,47.7c0,0,46.2-18.6,112.8-4.7l23.1,29.6c0,0-53.3-19.3-123.8-3.6L341.8,47.7z
			 M375.2,77.3C441.8,45,491.8,81,491.8,131.8c0,70-56.7,126.7-126.7,126.7s-126.7-56.7-126.7-126.7S295.1,5.1,365.1,5.1
			c19.1,0,37.2,4.2,53.6,11.8c7.2,6.6,10.1,20.4,10.1,20.4c-17.5-8.3-48.3-11.6-76.9-6.2c-44.1,6.2-87,45.9-87,101.6
			s45.2,100.9,100.9,100.9s100.9-45.2,100.9-100.9c0-32.5-32.5-58.1-77.8-32.3L375.2,77.3z"/>
	</g>
	<path id="Registro" class="st0" d="M562.9,384.3c4.3,0,8.1,1.6,11.2,4.7c3,3.1,4.5,6.8,4.5,11.1c0,4.4-1.5,8.1-4.5,11.2
		c-3.1,3.1-6.9,4.7-11.2,4.7c-4.4,0-8.1-1.5-11.2-4.7c-3.1-3.1-4.6-6.8-4.6-11.2c0-4.4,1.5-8.1,4.6-11.1
		C554.8,385.9,558.5,384.3,562.9,384.3z M581.2,400c0-5.1-1.7-9.4-5.3-12.9s-8-5.3-13-5.3c-5.1,0-9.3,1.7-12.9,5.3
		c-3.6,3.5-5.4,7.9-5.4,12.9c0,5.1,1.8,9.4,5.4,13c3.5,3.6,7.8,5.4,12.9,5.4c5.1,0,9.4-1.8,13-5.4
		C579.4,409.5,581.2,405.1,581.2,400z M567.8,396.1c0,1.6-0.7,2.5-2.1,3.1c-0.7,0.4-1.9,0.5-3.4,0.5H559v-7.1h3c2,0,3.5,0.2,4.3,0.7
		C567.3,393.7,567.8,394.6,567.8,396.1z M555.5,390v20h3.5v-7.9h2.8c1.9,0,3.2,0.2,4,0.7c1.4,0.7,2,2.3,2,4.6v1.6v0.7
		c0.1,0.1,0.1,0.1,0.1,0.2s0,0.1,0.1,0.1h3.3l-0.1-0.2c0-0.2-0.1-0.5-0.1-1.1c-0.1-0.6-0.1-1-0.1-1.5v-1.5c0-1-0.3-2-1-3.1
		s-1.8-1.7-3.4-1.9c1.2-0.2,2.2-0.5,2.9-1c1.3-0.8,2-2.2,2-3.9c0-2.5-1.1-4.2-3.1-5.1c-1.1-0.4-3-0.7-5.5-0.7L555.5,390L555.5,390z"
		/>
</g>
<g>
	<path class="st0" d="M1065.9,154.3l-0.3-0.9c2.6-9,2.3-16.9,1.6-27.1c-2.1-28.2-7.8-54.3-16.9-77.8l-0.2-0.3
		c-2.3-5.6-7.7-9.2-13.7-9.7c-2.3-4.2-4.7-8.4-7.3-12.5c-2.3-3.5-6.1-5.9-10.3-6.8c-2.4-0.5-5.2-0.3-7.7,0.5
		c-3.3-4.9-6.8-9.4-10.4-13.4c-2.8-3.1-6.6-5-10.8-5.2s-8.5,1.2-11.7,4c-5.9,5.4-6.8,14.3-2.3,20.7c-3.8,5.4-4.2,13.1-0.5,18.6
		c0.3,0.3,0.2-0.2,0,0C960.8,25.9,942,14.2,920.6,9.5c-48-10.6-93.4,13.2-116.1,60.7c-3.8-1.2-7.8-2.3-11.8-3.3
		c-24.2-5.4-52.2,0.2-75,14.6c-23.3,14.8-39.5,37.9-45.6,64.9c-8.7,39.5,0.3,78.1,26.1,111.5c0.3,0.5,0.7,0.9,1,1.4l0.9,1
		c35,39.5,95.5,68.6,158.2,75.7l1.6,0.2c0.7,0,1.4,0.2,2.1,0.2c0.2,0,0.5,0,0.7,0h1.2c52.2,0,92-26.1,115.2-75.7l0,0l2.1-4.9
		c0.5-1.2,1.2-2.4,1.7-3.8c0.9,1.4,1.9,2.8,3,4.2c-3,5.2-6.1,10.3-9.4,15.1l-17.2,24.9l30.3-2.8c0.7,0,1.4-0.2,2.3-0.2h0.3
		c2.8-0.2,6.1-0.5,9-1l6.4-1l3.5-5.6c3.3-5.2,6.4-11,9.6-17.1l1.4-0.3c16.5-3.3,25.4-12.2,29.9-19.1c6.3-9.6,7.7-21.2,6.3-28.5
		c1.9-3,3.5-6.1,4.7-9.2c3.3-9.6,2.8-18.4,1-23.7C1069.9,174.5,1068.4,160.2,1065.9,154.3"/>
	<path class="st5" d="M980.7,80.9c-12.4-30.1-35.3-51.3-63-57.4c-46.1-10.3-88.2,16.9-105.3,65.1c-7-3.3-14.4-5.7-22.6-7.7
		c-20.5-4.5-44.5,0.2-64.4,12.7c-20.2,12.9-34.1,32.7-39.3,56.2c-7.8,35.3,0.3,69.8,23.7,99.9c0.3,0.5,0.7,1,1.2,1.4
		c32.7,37.1,89.8,64.2,148.9,71c1,0,1.9,0.2,3,0.2c48.7,0.5,85.3-24.7,105.8-72.7c0,0.2-0.2,0.7-0.3,0.9
		C1009,160.7,988,97.9,980.7,80.9"/>
	<path class="st0" d="M963.6,94.8L963.6,94.8c-8.2-20.2-23.3-36-42.3-40.2c-36.9-8.2-65.9,19.7-74.3,57.4
		c-9.2,41.9,12.9,89.4,58.3,99.5c21.9,4.9,39.2-5.2,45.2-13.9c-6.3,23.1-15.8,47.3-32.2,62.6c-84.9-2.4-148.2-55.5-136.9-105.8
		c4.2-18.8,17.2-27,32.4-23.7c7,1.6,17.2,7.7,24.9,16.2c-0.9-4.5-2.4-9.2-5-13.2c-7-10.4-18.3-19-37.1-23.1
		c-23-5.2-60,9.2-68.4,46.3c-6.3,27.8,1.4,53.4,17.9,74.8c27.1,30.8,76,54.3,127.7,60.2c31.7,0.3,60-12.7,77.8-54.3v0.2
		C980.8,173.8,975.3,121.4,963.6,94.8 M916.3,198.9c-25.9-5.9-39.5-41.1-31.8-74.5c5.9-27.1,25.1-38.1,46.1-34.6
		c35,5.9,39.3,57.1,25.6,86.5C948.5,192.9,935.3,203,916.3,198.9"/>
	<path class="st0" d="M1076.2,394.6c0,9.2-7.5,16.7-16.7,16.7s-16.7-7.5-16.7-16.7c0-9.2,7.5-16.7,16.7-16.7
		C1068.9,378.1,1076.2,385.4,1076.2,394.6 M1046.3,394.6c0,7.3,5.9,13.4,13.4,13.4c7.3,0,13.4-5.9,13.4-13.4
		c0-7.3-5.9-13.4-13.4-13.4C1052.2,381.4,1046.3,387.3,1046.3,394.6 M1063,403.5l-1.4-3c-0.7-1.2-1.7-2.8-2.4-3.5
		c-0.7-0.7-1.4-0.9-3-0.9h-0.7v7.3h-3.5v-17.6h8.7c3.8,0,5.6,2.1,5.6,4.9c0,2.6-1.7,4.5-4.7,4.9v0.2c1.6,0.5,2.1,1,3.8,4.2l2.1,3.7
		h-4.5V403.5z M1059.3,393.6c2.4,0,3.3-1.2,3.3-2.4c0-1.6-1.2-2.4-3.7-2.4h-3.3v4.9L1059.3,393.6L1059.3,393.6z"/>
	<path class="st0" d="M989.5,242.4l-10.8,14.1c43.7-0.5,64.9,5.4,64.7,24.5c0,17.1-4.2,52.2-9.7,70.5c-11.1,36.4-27.3,52-80.4,52
		c-58.3,0-106.1-12.9-136.2-20c-30.1-7.1-66.6-20.2-113.6-20.2c-13.7,0-35,1.7-46.3,6.6c-1,0.3-1.9,1-1.7,1.7
		c0.2,0.7,1.2,0.3,2.4,0.2c12.4-2.6,35.3-2.4,46.5-2.1c84.2,3,131.2,47.7,249.2,47.7c55.3,0,79.9-16.2,93.8-61.9
		c6.4-20.9,10.3-57.4,10.4-74.5C1057.8,247.9,1021.4,243.4,989.5,242.4"/>
	<path class="st6" d="M976.5,256.4c-3.3,7.3-6.3,13.9-13.4,23.5c27.3,0.5,53.4-3.7,64-8c1.9-0.7,2.6,0.2,0.9,1.6
		c-5.4,4-23.1,13.1-75.5,13.4c-28.4,0.2-71.2-7-130.7-24c-44.4-12.7-75.2-16.5-97.4-15.7l0,0c-37.2,0-68.7,10.6-83.7,54.6
		c-6.8,19.7-10.4,49.8-7.5,75.9c1.9,16,12,25.2,74.5,25.2c52.4,0,102-10.6,102-10.6c-43.7-13.9-67.7-18.8-90-21.6
		c-17.4-2.1-51.5-1.2-61.8,0.9c-2.4,0.5-3.1-1-0.7-1.9c13.6-4.7,31-6.8,45.6-6.8c47,0,84.2,13.2,114.3,20.4s78,20,136.2,20
		c53.1,0,69.3-15.7,80.4-52c5.6-18.3,9.7-53.2,9.7-70.5c0-22.6-30.5-23.3-54.5-24.5L976.5,256.4z"/>
	<path class="st0" d="M823.4,388.5c-24.5,6.3-63.5,14.3-115.9,14.3c-62.5,0-72.6-9.2-74.5-25.2c-3-25.9,0.9-56.2,7.5-75.9
		c15-44,46.6-54.6,83.7-54.6l0,0c22.1-0.7,53.1,3,97.4,15.7c59.3,17.1,102.3,24.2,130.7,24c52.4-0.3,70.1-9.4,75.5-13.4
		c1.7-1.2,1-2.3-0.9-1.6c-10.6,4.4-31.7,7.7-54.3,8c-64,0.7-93.3-15.1-147-30.6c-34.3-9.9-63-15.1-87.2-16.2l-3.7-0.2
		c-3.1,0-6.1,0-9,0h-1.4c-32.2,0-77.4,6.6-97.1,64c-8,23.5-11.3,55.7-8.2,82c3.7,32.2,33.9,38.1,88.6,38.1
		c46.5,0,112.6-13.6,136.2-21.9C843.7,395,832.4,393,823.4,388.5"/>
	<path class="st7" d="M1017.9,227L1017.9,227L1017.9,227c0,0.2,0.2,0,0.3,0C1018.1,227,1017.9,227,1017.9,227"/>
	<path class="st7" d="M1038.3,127.2c1.4,1.7,2.8,4,4,6.4c2.3-6.3,1.6-13.4,1.2-17.4c-2.1-30.8-11.7-59-26.4-82.3
		c-0.5-0.7-1.4-0.9-2.1-0.5c-0.7,0.5-0.9,1.4-0.5,2.1c14.4,22.8,23.3,50.5,25.9,80.4C1040.7,121.2,1039.8,124.6,1038.3,127.2"/>
	<path class="st7" d="M1020.7,103c0.7-1.7,1.4-3.1,2.3-4.2c1.6-1.7,3.3-2.1,4.5-2.1c2.1,0,4.2,0.9,6.1,2.6c0.3,0.3,0.7,0.7,1,1
		c0-1.7-0.2-3.8-0.5-5.9c-0.3-2.8-8.2-15.1-11.8-14.4c-2.4,0.5-3.8,13.1-3.3,17.4C1019.1,99,1020,100.9,1020.7,103"/>
	<path class="st7" d="M1027,124.7c1.4-1,2.6-1.9,4-1.9c1.4,0,2.4,0.3,3.5,0.9c0.7-1.6,1.9-9.7,0.3-13.6c-2.1-4-4.9-8.2-7-8.2
		c-1.9,0-3.7,4.2-4.5,9.9C1022.8,117.6,1026.3,124,1027,124.7"/>
	<path class="st7" d="M1023.7,128.6c-3-3-4.4-8-5-11.5c-3.5-31-13.9-61.8-28.4-82.8c-0.5-0.7-1.4-0.9-2.1-0.3s-0.9,1.4-0.3,2.1
		c14.3,20.7,24.5,51,28,81.6c0.2,1,0.9,10.3,1.7,13.7c0.5,1.9,1.2,3.7,2.3,5C1020.5,133.6,1021.9,130.8,1023.7,128.6"/>
	<path class="st7" d="M1021.4,75.1c1.4-0.3,2.8,0,4.2,0.5c-0.2-3.3-0.7-8.2-1.9-10.4c-1.4-3-7-5.2-10.8-13.6
		c-6.4-14.1-14.1-26.3-22.8-36.2c-0.5-0.7-1.6-0.7-2.1-0.2c-0.7,0.5-0.7,1.6-0.2,2.3c8.7,9.7,16.2,22.1,22.6,36
		c3.5,7.5,1.6,13.1,2.8,16.9c0.7,2.1,2.6,5.2,4.2,7.5C1018.4,76.5,1019.6,75.5,1021.4,75.1"/>
	<path class="st7" d="M1020.5,160.9c0.3-0.7,0.7-1.2,1-1.9v-0.3c-0.3-1.9-1-3.8-1.6-5.7c-1-3.7-1.9-6.8-1.9-9.4c0-0.3,0-0.9,0.2-1.2
		c-2.4-2.4-4.4-4.9-5.6-9.9c-1.2-5-2.3-12.9-2.4-14.4c-3.1-23.8-9.7-46.1-19.1-64.6c-0.3-0.7-1.2-1-2.1-0.7c-0.7,0.3-1,1.4-0.7,2.1
		c11.7,23,19,52.2,20.5,82.8c0,0.5,0.2,2.1,0.2,2.1c0.5,4.9,2.4,11,6.8,16.5C1017,157.8,1018.8,159.4,1020.5,160.9"/>
	<path class="st7" d="M1052.9,127.3c-2.1-27-7.5-51.9-16-73.8c-0.3-0.9-1.2-1.2-1.9-0.9c-0.9,0.3-1.2,1.2-0.9,2.1
		c7.1,18.4,13.4,48.2,14.6,62.5c0.7,7.7,0.5,18.6-3.7,22.6c0.7,2.1,1,4.2,1,5.9c-0.2,3.3-1.7,7.7-3.8,13.7l-0.3,1.2
		c0.3,0.9,0.7,1.7,1,2.8c3-2.3,5.6-4.9,7-7.7C1053.6,146.5,1053.8,140.6,1052.9,127.3"/>
	<path class="st7" d="M1024.2,180.6c2.3-1.2,4.2-1.4,5.6-1l0,0h0.2c0.2,0,0.3,0.2,0.5,0.2c0.2,0,1.7,0.3,1.7,0.3l0.3,0.3
		c1.2,0.7,2.4,1.9,3.3,3.5c1.6-3.8,3-7.3,3.3-9.7c0.7-5.6-5-19.3-7.5-19.3c-2.6,0-9.9,11.8-10.1,17.4c-0.2,2.3,0.5,5.6,1.2,9
		C1023.5,181.1,1023.8,180.8,1024.2,180.6"/>
	<path class="st7" d="M1031.8,149.6c1.9,0,3.7,0.9,5.2,2.8c0.3,0.5,0.9,1,1.4,1.7c1.2-3.8,2.3-6.8,2.4-8.9
		c0.3-5.2-6.8-17.6-9.4-17.4c-2.4,0.2-8.5,10.6-8.4,15.5c0,2.4,1.2,6.3,2.3,10.3C1027.5,151.4,1029.7,149.6,1031.8,149.6"/>
	<path class="st7" d="M1016,187.5c0.9-0.9,1.6-1.7,2.4-2.6c-0.2-0.7-0.2-1.6-0.3-2.3c-0.9-4.2-1.4-7.7-1.4-10.6
		c0-1.6,0.7-3.8,1.6-6.3c-2.4-1.9-4.5-4-6.4-6.3c-0.9-1-1.6-2.3-2.3-3.3C1007.5,161.8,1005.7,178.5,1016,187.5"/>
	<path class="st7" d="M1029.7,184.8L1029.7,184.8c-0.2,0-0.2,0-0.2,0c-3.8-1.7-15,10.6-16.2,17.1c-0.3,2.1-0.3,5-0.2,8.4
		c3.7-3.7,7.5-6.1,10.6-5c2.3,0.7,3.8,2.4,5,5.2c0.7,1.6,1,3.8,1.6,6.3c1.9-3,3.7-5.6,4.3-7.8C1037,202.5,1033.9,185.5,1029.7,184.8
		"/>
	<path class="st7" d="M1052.9,159.9c-2.1,3.3-5.4,6.1-8.9,8.7c0.5,2.3,0.7,4.5,0.3,6.3c-0.3,2.8-1.6,5.9-3.1,9.6
		c-0.9,2.1-1.7,4.4-2.4,6.4c0.2,0.9,0.5,1.7,0.7,2.8C1055.8,185.3,1054.8,164.6,1052.9,159.9"/>
	<path class="st7" d="M1008.3,215.4c0-0.9,0-1.7-0.2-2.6c-0.2-4.5-0.5-8.9,0.2-12c0.5-2.8,2.1-5.9,4.4-9c-3-2.4-4.9-5.2-6.3-7.8
		c-0.2-0.5-0.3-1-0.7-1.6C1002.8,186.5,997.6,203.6,1008.3,215.4C1008.3,215.6,1008.3,215.6,1008.3,215.4"/>
	<path class="st7" d="M1040.4,199c0.3,4.4,0.3,8.5-0.7,11.5c-1,3.1-3.5,6.6-5.9,10.3c-0.7,1-1.4,2.1-2.1,3.3
		c20.7-8,20.2-27.3,18.4-31.8C1047.7,194.7,1044.5,197.1,1040.4,199"/>
	<path class="st7" d="M998.9,278.2c3.3-5.2,6.4-11,9.4-16.7c0.3-0.9,0.9-1.6,1.2-2.4c0.2-0.2,0.2-0.5,0.3-0.7
		c0.2-0.3,0.3-0.9,0.5-1.2c4.4-8.4,11.7-10.6,13.9-15c3.7-6.6,2.1-31.1-2.1-32.4c-3.1-0.9-17.1,17.2-18.8,21.6
		c-1.4,3.5,0.7,10.3,0.7,15c0,4.5-1.4,7.8-2.1,9.6c-0.5,1-1.2,2.3-1.7,3.3c-3.8,7.1-7.8,13.7-12.2,20.2
		C991.5,279.1,995.6,278.7,998.9,278.2"/>
	<path class="st7" d="M1044,222.9c-3.3,2.4-7.3,4.5-11.8,6.1c0,6.1-0.7,12-2.6,15.3c-1.4,2.6-3.7,4.5-6.1,6.4c-1.4,1-3,2.3-4.2,3.7
		C1043.7,249.5,1045.4,229.1,1044,222.9"/>
	<path class="st7" d="M998.8,249.5c0.2-0.9,0.3-1.9,0.3-3.1c0-1.4-0.2-3.3-0.5-5c-0.5-4-1-8.4,0.2-11.7c0.2-0.5,2.8-4.9,6.3-9.9
		c-3.5-3.7-5.4-7.5-6.6-11C994.1,212.9,983.5,232.3,998.8,249.5"/>
	<path class="st0" d="M775,325.5c-0.9,1-1.9,1.6-3,1c-5.4-3.3,8-31.8,11.1-38.1c0.3-0.7,0-1.6-0.9-2.1c-3-1.4-8.4-4.2-15.7-4.9
		c-27.7-3.1-45.9,24.2-45.9,39.8c0,8,3.8,14.4,12.7,14.1c9.7-0.3,18.3-9,24.7-19c-1,3.5-1.6,6.4-1.7,8.5c-0.7,8,3.5,11.1,8.7,11.7
		c8.4,0.9,11-6.8,11.1-10.3C776.4,325.9,775.4,325.2,775,325.5 M739.3,324.7c-2.1,0.2-3.5-1.4-3.5-4.5c0-13.6,15.5-32.5,29.1-31
		c1,0.2,1.9,0.3,2.8,0.5C760.9,302.2,748.2,324.1,739.3,324.7"/>
	<path class="st0" d="M1013,310c-33.4-7.3-53.9,24.9-54.3,43c-0.2,8,3.8,14.8,12.7,13.7c10.3-1.2,18.6-13.6,24.9-26.8
		c-1.2,4.7-2.1,11.1-2.3,13.7c-0.5,8.2,3.5,10.3,8.5,8.7c8.2-2.6,10.6-12,11-15.8c0-0.7-0.9-1-1.4-0.2c-0.9,1.6-1.9,2.6-2.8,2.6
		c-5.4-0.7,1.2-28.4,4.4-36.9C1014.1,311.1,1013.7,310.6,1013,310 M976.8,353.4c-2.1,0.5-3.1-0.5-3.1-2.4
		c0-13.6,14.3-35.7,26.3-33.4C993.2,333.7,985.5,351.6,976.8,353.4"/>
	<path class="st0" d="M858.3,299.4c-8.4-1.7-16.7,4.2-23.3,12.2c1.2-2.4,2.1-4,2.6-6.1c1.6-6.8-3-11.1-9.6-12.7
		c-8.2-1.7-16,4.2-22.4,12.2c1.6-3.7,2.6-6.1,3.1-8.2c1.4-5.6-2.8-8.7-7.1-9.6c-3.8-0.7-8,0-9.9,1.4c-0.5,0.3-0.5,1.4,0.2,1.9
		c2.6,1.6,2.3,4.2,0.5,9c-2.8,7.3-10.4,28.7-11.3,33.4c-0.7,3.7,0.7,5.9,5.7,6.8c6.8,1,9,1,9.6-1.7c0.2-1.2,0.3-2.6,0.5-4.4
		c3.5-20.9,18.8-31.3,23.1-30.3c2.8,0.5,1.4,4.2-0.2,7.8c-3.7,8.5-8.4,21.9-9.2,27.1c-0.5,3.7,0.3,5.9,6.4,7.1
		c7,1.4,8.9,1.4,9.2-1.4c0-0.7,0.2-1.4,0.2-2.1c1.7-20.2,19.5-32.5,24-31.8c1.7,0.2,1.7,2.3,0.7,4.7c-3,7.5-8.4,19.5-7.8,29.1
		c0.2,4.5,2.8,8.2,8.5,9.4c6.4,1.4,12-2.1,12.7-5c0.2-0.7-0.5-1.4-1.2-1.4c-1,0.2-2.4,0.3-3.3-0.5c-2.3-1.9-1.9-6.8,0.5-14.6
		c3.5-11.1,6.3-16,7.1-19.5C869.7,304.8,865.1,300.8,858.3,299.4"/>
	<path class="st0" d="M937.7,322.9c0.2-2.4,2.3-5.2,7.3-5.2c6.1,0,8.2,5.4,5.6,8.9c-0.5,0.7,0,1.4,0.7,1.4c3.7,0,9.6-1.6,9.9-7.5
		c0.3-5.2-5.2-9.6-17.1-9.6c-8.7,0-19.3,4.2-20,13.2c-0.9,12,15.1,20.4,14.6,28.5c-0.3,4.2-3.8,7.7-9.7,6.8
		c-4.7-0.7-7.7-4.4-7.1-8.7c0.2-2.4,1.4-3.8,3.7-5c0.5-0.3,0.3-1-0.2-1.4c-6.8-3.3-13.7,0.3-14.6,5.9c-1,7,5.9,14.3,18.8,15.3
		c12.9,1,23.7-4.9,24.4-14.6C954.6,338.2,937,331.6,937.7,322.9"/>
	<path class="st0" d="M718.1,300.1c-2.8,0.3-5.7,0.7-8.5,1c0,0-1.2,0.2-5.2,0.9c-5.9,1-10.3,5.4-11.1,9.9c-0.5,2.3,0.2,3.3,1,3.1
		c1.4-0.3,1.7-0.9,5.9-1.7c0.2,0,0.5,0,0.9-0.2c1-0.2,1.6,0.3,1,1.6l0,0c-0.2,0.3-0.2,0.5-0.3,0.9c-4.9,12.5-8.9,18.4-14.3,20
		c-6.3,1.9-12.2-5-4.7-26.6c8.7-24.9,22.1-34.5,29.4-35.3c4-0.5,5.7,1.2,6.3,3.7c0.5,2.3-0.7,5-2.1,6.8c-0.3,0.5-0.2,1.2,0.5,1.2
		c5.9,0.5,14.1-2.8,14.1-9.9c-0.2-7.8-9.9-9.9-17.1-9c-24.7,2.3-47.2,30.3-50.6,56c-2.6,16.7,8.7,23.1,20.9,21.2
		c12.2-1.9,22.4-9.9,30.5-26.8c2.4-5,2.6-6.3,5-11.5C721.2,302,720.9,299.9,718.1,300.1"/>
	<path class="st0" d="M882.7,338.8c14.4,3.5,33.8-1.7,35.1-16.5c0.7-7.1-4.5-12.7-12.7-14.1c-20-3.3-36.5,16.7-36.5,32.5
		c0,12.9,8.9,18.1,18.3,19.5c10.6,1.7,18.3-3.3,21.1-8.2c0.5-0.9-0.3-2.1-1.2-1.6c-4.2,2.6-8.7,4-14.6,3
		C884.3,352.5,881.5,348.3,882.7,338.8C882.5,338.9,882.5,338.9,882.7,338.8 M900.8,314.6c3.1,0.5,4.9,3,3.8,6.6
		c-2.3,8.5-12.5,13.2-21.1,12.7C886.4,323.8,893.2,313.3,900.8,314.6"/>
</g>
</svg>
