<?xml version="1.0" encoding="utf-8"?>
<!-- Generator: Adobe Illustrator 26.3.1, SVG Export Plug-In . SVG Version: 6.00 Build 0)  -->
<svg version="1.1" id="_xAE_" xmlns="http://www.w3.org/2000/svg" xmlns:xlink="http://www.w3.org/1999/xlink" x="0px" y="0px"
	 width="581.2px" height="418.4px" viewBox="0 0 581.2 418.4" style="enable-background:new 0 0 581.2 418.4;" xml:space="preserve"
	>
<style type="text/css">
	.st0{fill:#FFFFFF;}
	.st1{fill-rule:evenodd;clip-rule:evenodd;fill:#B11116;}
	.st2{fill-rule:evenodd;clip-rule:evenodd;fill:#ED1C24;}
	.st3{fill-rule:evenodd;clip-rule:evenodd;fill:#FFFFFF;}
	.st4{fill-rule:evenodd;clip-rule:evenodd;}
</style>
<g>
	<path id="Contorno_Blanco" class="st0" d="M567.3,243c-3.5-9.3-9-17.7-17-24.6c-0.4-1-1.2-1.8-2.2-2.3
		c-20.6-11.4-43.4-17.9-67.7-20.6c10.4-18.9,16.4-40.6,16.4-63.7c0-19.9-7.3-38-20.1-51c-1.7-1.7-3.5-3.3-5.4-4.9l0,0
		c1.5,0.4,2.7,0.8,3.4,1.1c0.4,0.1,0.7,0.2,0.8,0.3c0.2,0.1,0.2,0.1,0.2,0.1l16.6,6l-35.1-45l-1.8-0.4c-7.7-1.6-15.2-2.8-22.3-3.6
		c-0.4-1.5-1.1-3.9-2.1-6.5c-1.8-4.6-4.5-10.3-9-14.6l-0.6-0.5l-0.7-0.3C403.9,4.4,385,0,365.2,0c-72.8,0-131.8,59-131.8,131.8
		c0,26.6,7.9,51.3,21.4,72c-35.9-6.9-72.2-12.3-108.7-12.3c-38.1,0-76.5,5.9-114.8,22.1c-1,0.4-1.9,1.2-2.4,2.1
		C28.7,216.1,0.1,265.1,0,323.5c0,21.2,3.8,43.6,14.3,65.3c0.5,1.1,1.5,2,2.7,2.5c30.8,12.5,64.1,17.9,98.5,17.9
		c45.9,0,93.7-9.5,140.2-24.2c64.3,10.9,127.7,24.8,183.8,24.8c37.6,0,72-6.3,100.9-24.5c0.8-0.5,1.4-1.2,1.8-1.9
		c0.1-0.1,7.6-14.6,15.2-35.2c7.6-20.7,15.2-47.6,15.2-73.1C572.5,263.9,571.1,253,567.3,243z"/>
	<path id="Sombra" class="st1" d="M545.7,220.6c-175.4-97-526.8,166-526.8,166C206.8,463.1,496.6,266.5,545.7,220.6z"/>
	<path id="Red" class="st2" d="M33.2,218.3c173.6-73.5,348.9,68.7,512.4,2.5c53.6,42.5-8.1,160.2-8.1,160.2
		c-121.5,76.6-352.8-63.2-518.7,5.6C-19.1,308.3,33.2,218.3,33.2,218.3z"/>
	<g id="Frito_Lay">
		<g>
			<path class="st0" d="M349.3,342.2c-0.1,0.9,1.5,1.5,4,1.9c6.3,1.1,11.5,1.8,18.2,1.2c1.3-0.1,2.9-0.4,4.1-1.2
				c0,0-3.4,16.1-7.2,16.8c-3.1,0.5-23.7-2.1-34.5-4.9c-3.7-1-5.6-2.1-5.6-3.1c0.7-12.5,10.7-47.8,14.8-71.5
				c2.3-12.2,1.7-15.2-1.8-18.6c6.1-2.4,20.8-1.3,21.9,1.4c1.4,3.9,0.4,10-2.4,22.8C357.7,301.6,350.3,334,349.3,342.2z"/>
			<path class="st0" d="M491.5,291.3c0.7,4.6,1.7,14.3-0.7,27c-3.3,18.2-8.8,26.6-8.8,26.6s-4.8-41.7-13.6-51.8
				c-2.6-3-17.6,6.8-17.6,6.8c3.1,1.8,4.8,6.6,9.5,21.2c4,12.4,8,32.7,8.8,39.7c0.1,2.7-7.1,12.1-10,15.2c-3.4,3.1-7.9,3.6-11.1,2.2
				c-0.1,2.3,2.9,9,7.6,12.6c6.8,5.9,12.4,0.1,18-6c12.3-14,23.8-33.8,31-54.1c3.7-10,5.2-21.6,5.3-30.8c0.1-5-0.2-9.9-1.2-12.7
				C508.3,286.4,491.5,291.3,491.5,291.3z"/>
			<path class="st0" d="M445.5,358.8c-3.7,3.6-8.8,6.2-13.5,7.3c-2.3,0.5-5.1,0.9-7.5-0.2c-2.5-1.2-3.8-6.6-4.3-10.6
				c-3.4,6.6-10.4,9.9-15.8,10.2c-12,0.7-20.7-6-21.7-19.7c-1-15.6,2.9-28.9,10-37.5c6.5-8.2,13.9-12.4,24.7-13.6
				c2.6-0.3,5.8-0.4,9.1-0.2c5.9,0.2,12,1.2,14.4,2.7c0.4,0.3-4.6,45.1-3.1,53.2C438.6,354.5,439.8,356.7,445.5,358.8z M422.4,309.2
				c-1.2-0.6-3.3-0.8-4.9-0.7c-4.2,0.4-7.4,0.8-11.7,6.5c-4.9,7.1-6.6,18.3-5.9,27.4c0.5,6,2.9,8.4,6.8,8.1
				c5.3-0.4,10.5-6.4,11.9-11.3C418.5,339.2,423.5,309.8,422.4,309.2z"/>
		</g>
		<g>
			<path class="st0" d="M130.8,232.2l-5.7,16.5c-1-0.8-2.4-1.2-3.6-1.3c-9.4-0.5-26.7,3.1-27.6,5.3c-2.2,4.7-4.5,15.8-5.3,19
				c5.5-1.9,17.1-4,24.1-4.2l-4,14.4c-8.6,0.1-22.6,3.9-23.1,5.9c-0.8,3.4-1.6,8.9-2.7,17.2c-1.6,11.5-2.8,20.9,0.3,23.3
				c-4.3,2.2-17.8,5.1-20.1,2.3c-2.1-2.8,4.7-70.2,17.5-90.4C82.8,236.5,115.1,229.8,130.8,232.2z"/>
			<path class="st0" d="M142,253.6c2.9,1.1,2.8,5.5,2.1,10.9c6.8-8.9,20.7-10.6,24.2-8.6l-4.7,16.4c-7.3-4.9-16.5-0.3-19.5,6.9
				c-3.9,10.7-10.3,42.2-4.4,44.2c0,0-17.8,2.8-19.6-1c-2.4-5,5.2-35.7,7-43.2c1.7-7.6,0.3-15.2-2.3-17.8
				C124.8,261.4,139.2,252.6,142,253.6z"/>
			<path class="st0" d="M289.1,288.4c5.2,0.6,8.1,3.1,7.7,11c-0.6,12.9-7.5,33.2-19.1,32c-5-0.6-8.3-3.6-8-10.1
				C270.2,311.1,276.9,287,289.1,288.4z M292,274.8c-23.2-1.6-39.4,18.5-40.4,44.2c-0.6,15.4,6.9,24.7,22,25.7
				c26.7,1.8,39.8-20.8,40.6-44.6C314.9,285.1,306.7,275.9,292,274.8z"/>
			<g>
				<path class="st0" d="M197.8,257.9c5.5,7-17.6,63.7-9.6,70.3c0,0-16.8,0.5-19.6-2.7c-4.8-5.3,14.2-56.2,10.2-62.2
					C178.8,263.3,196.1,255.8,197.8,257.9z"/>
				<path class="st0" d="M204.6,233c0.3,5.9-4,10.6-9.8,10.9c-5.7,0.3-10.4-4-10.8-9.8c-0.3-5.6,4.1-10.5,9.7-10.7
					C199.4,222.9,204.3,227.4,204.6,233z"/>
			</g>
			<path class="st0" d="M253.4,268.8l-13.7-2.7c1.2-5,2.5-12.7,2.6-15.7c0.2-3.2,0-6-1.2-6.3c-2.3-0.7-17.4,4.8-17,5.7
				c0.9,2.2-0.7,9.4-1.3,13.3c-2.2-0.3-5.5-0.7-7.2-0.9c-0.9,1.6-6.7,12.6-6.7,12.6c3.1,0.3,8.7,1,11.6,1.6
				c-0.8,3.8-10.5,40.9-10.6,46.5c-0.1,6.8,2.9,12.7,13.3,11.4c8-0.9,12.4-4,15.9-6.5c-4.6-1.1-12-2.4-10.1-12.9
				c0.6-3.2,5-22.5,8.4-35.5l12.2,2.3L253.4,268.8z"/>
		</g>
	</g>
	<g id="Carita">
		<ellipse class="st3" cx="370.9" cy="134.6" rx="111.5" ry="113.8"/>
		<path class="st2" d="M290.1,90.7c0-9.4,7.7-17.1,17.1-17.1s17.1,7.7,17.1,17.1s-7.7,17.1-17.1,17.1
			C297.8,107.8,290.1,100.1,290.1,90.7z"/>
		<path class="st2" d="M418.7,139c0-9.4,7.7-17.1,17.1-17.1s17.1,7.7,17.1,17.1s-7.7,17.1-17.1,17.1
			C426.4,156.1,418.7,148.4,418.7,139z"/>
		<path class="st4" d="M291.8,123.5c16.7,16.3,65.2,52.3,134.6,49.5C392.7,236.4,279.1,206.7,291.8,123.5z M285.1,107.6
			c20.1,19.7,77.2,66.4,158,56.7C392.2,269.7,255.8,204,285.1,107.6z M348.9,132.2c0,0,16.4-9.5,28.5,6.4c5.8,11.1-4,9.9-4,9.9
			s-5.2-11.4-23.6-7.8C343.9,138.1,348.9,132.2,348.9,132.2z M382.7,124.1c0-7.5,6.1-13.6,13.6-13.6s13.6,6.1,13.6,13.6
			c0,7.5-6.1,13.6-13.6,13.6C388.8,137.7,382.7,131.7,382.7,124.1z M332.3,107.5c0-7.5,6.1-13.6,13.6-13.6s13.6,6.1,13.6,13.6
			s-6.1,13.6-13.6,13.6S332.3,115,332.3,107.5z M341.8,47.7c0,0,46.2-18.6,112.8-4.7l23.1,29.6c0,0-53.3-19.3-123.8-3.6L341.8,47.7z
			 M375.2,77.3C441.8,45,491.8,81,491.8,131.8c0,70-56.7,126.7-126.7,126.7s-126.7-56.7-126.7-126.7S295.1,5.1,365.1,5.1
			c19.1,0,37.2,4.2,53.6,11.8c7.2,6.6,10.1,20.4,10.1,20.4c-17.5-8.3-48.3-11.6-76.9-6.2c-44.1,6.2-87,45.9-87,101.6
			s45.2,100.9,100.9,100.9s100.9-45.2,100.9-100.9c0-32.5-32.5-58.1-77.8-32.3L375.2,77.3z"/>
	</g>
	<path id="Registro" class="st0" d="M562.9,384.3c4.3,0,8.1,1.6,11.2,4.7c3,3.1,4.5,6.8,4.5,11.1c0,4.4-1.5,8.1-4.5,11.2
		c-3.1,3.1-6.9,4.7-11.2,4.7c-4.4,0-8.1-1.5-11.2-4.7c-3.1-3.1-4.6-6.8-4.6-11.2c0-4.4,1.5-8.1,4.6-11.1
		C554.8,385.9,558.5,384.3,562.9,384.3z M581.2,400c0-5.1-1.7-9.4-5.3-12.9s-8-5.3-13-5.3c-5.1,0-9.3,1.7-12.9,5.3
		c-3.6,3.5-5.4,7.9-5.4,12.9c0,5.1,1.8,9.4,5.4,13c3.5,3.6,7.8,5.4,12.9,5.4c5.1,0,9.4-1.8,13-5.4
		C579.4,409.5,581.2,405.1,581.2,400z M567.8,396.1c0,1.6-0.7,2.5-2.1,3.1c-0.7,0.4-1.9,0.5-3.4,0.5H559v-7.1h3c2,0,3.5,0.2,4.3,0.7
		C567.3,393.7,567.8,394.6,567.8,396.1z M555.5,390v20h3.5v-7.9h2.8c1.9,0,3.2,0.2,4,0.7c1.4,0.7,2,2.3,2,4.6v1.6v0.7
		c0.1,0.1,0.1,0.1,0.1,0.2s0,0.1,0.1,0.1h3.3l-0.1-0.2c0-0.2-0.1-0.5-0.1-1.1c-0.1-0.6-0.1-1-0.1-1.5v-1.5c0-1-0.3-2-1-3.1
		s-1.8-1.7-3.4-1.9c1.2-0.2,2.2-0.5,2.9-1c1.3-0.8,2-2.2,2-3.9c0-2.5-1.1-4.2-3.1-5.1c-1.1-0.4-3-0.7-5.5-0.7L555.5,390L555.5,390z"
		/>
</g>
</svg>
