<?xml version="1.0" encoding="utf-8"?>
<!-- Generator: Adobe Illustrator 26.3.1, SVG Export Plug-In . SVG Version: 6.00 Build 0)  -->
<svg version="1.1" id="_xAE_" xmlns="http://www.w3.org/2000/svg" xmlns:xlink="http://www.w3.org/1999/xlink" x="0px" y="0px"
	 width="581.2px" height="418.4px" viewBox="0 0 581.2 418.4" style="enable-background:new 0 0 581.2 418.4;" xml:space="preserve"
	>
<style type="text/css">
	.st0{fill:#FFFFFF;}
	.st1{fill:#E1251B;}
	.st2{fill:#001689;}
	.st3{fill:#FAB81C;}
</style>
<g>
	<path class="st0" d="M509.5,154.3l-0.3-0.9c2.6-9,2.3-16.9,1.6-27.1c-2.1-28.2-7.8-54.3-16.9-77.8l-0.2-0.3
		c-2.3-5.6-7.7-9.2-13.7-9.7c-2.3-4.2-4.7-8.4-7.3-12.5c-2.3-3.5-6.1-5.9-10.3-6.8c-2.4-0.5-5.2-0.3-7.7,0.5
		c-3.3-4.9-6.8-9.4-10.4-13.4c-2.8-3.1-6.6-5-10.8-5.2s-8.5,1.2-11.7,4c-5.9,5.4-6.8,14.3-2.3,20.7c-3.8,5.4-4.2,13.1-0.5,18.6
		c0.3,0.3,0.2-0.2,0,0c-14.6-18.5-33.4-30.2-54.8-34.9c-48-10.6-93.4,13.2-116.1,60.7c-3.8-1.2-7.8-2.3-11.8-3.3
		c-24.2-5.4-52.2,0.2-75,14.6c-23.3,14.8-39.5,37.9-45.6,64.9c-8.7,39.5,0.3,78.1,26.1,111.5c0.3,0.5,0.7,0.9,1,1.4l0.9,1
		c35,39.5,95.5,68.6,158.2,75.7l1.6,0.2c0.7,0,1.4,0.2,2.1,0.2c0.2,0,0.5,0,0.7,0h1.2c52.2,0,92-26.1,115.2-75.7l0,0l2.1-4.9
		c0.5-1.2,1.2-2.4,1.7-3.8c0.9,1.4,1.9,2.8,3,4.2c-3,5.2-6.1,10.3-9.4,15.1l-17.2,24.9l30.3-2.8c0.7,0,1.4-0.2,2.3-0.2h0.3
		c2.8-0.2,6.1-0.5,9-1l6.4-1l3.5-5.6c3.3-5.2,6.4-11,9.6-17.1l1.4-0.3c16.5-3.3,25.4-12.2,29.9-19.1c6.3-9.6,7.7-21.2,6.3-28.5
		c1.9-3,3.5-6.1,4.7-9.2c3.3-9.6,2.8-18.4,1-23.7C513.5,174.5,512,160.2,509.5,154.3"/>
	<path class="st1" d="M424.3,80.9c-12.4-30.1-35.3-51.3-63-57.4C315.2,13.2,273.1,40.4,256,88.6c-7-3.3-14.4-5.7-22.6-7.7
		c-20.5-4.5-44.5,0.2-64.4,12.7c-20.2,12.9-34.1,32.7-39.3,56.2c-7.8,35.3,0.3,69.8,23.7,99.9c0.3,0.5,0.7,1,1.2,1.4
		c32.7,37.1,89.8,64.2,148.9,71c1,0,1.9,0.2,3,0.2c48.7,0.5,85.3-24.7,105.8-72.7c0,0.2-0.2,0.7-0.3,0.9
		C452.6,160.7,431.6,97.9,424.3,80.9"/>
	<path class="st0" d="M407.2,94.8L407.2,94.8c-8.2-20.2-23.3-36-42.3-40.2C328,46.4,299,74.3,290.6,112
		c-9.2,41.9,12.9,89.4,58.3,99.5c21.9,4.9,39.2-5.2,45.2-13.9c-6.3,23.1-15.8,47.3-32.2,62.6C277,257.8,213.7,204.7,225,154.4
		c4.2-18.8,17.2-27,32.4-23.7c7,1.6,17.2,7.7,24.9,16.2c-0.9-4.5-2.4-9.2-5-13.2c-7-10.4-18.3-19-37.1-23.1
		c-23-5.2-60,9.2-68.4,46.3c-6.3,27.8,1.4,53.4,17.9,74.8c27.1,30.8,76,54.3,127.7,60.2c31.7,0.3,60-12.7,77.8-54.3v0.2
		C424.4,173.8,418.9,121.4,407.2,94.8 M359.9,198.9c-25.9-5.9-39.5-41.1-31.8-74.5c5.9-27.1,25.1-38.1,46.1-34.6
		c35,5.9,39.3,57.1,25.6,86.5C392.1,192.9,378.9,203,359.9,198.9"/>
	<path class="st0" d="M519.8,394.6c0,9.2-7.5,16.7-16.7,16.7s-16.7-7.5-16.7-16.7s7.5-16.7,16.7-16.7
		C512.5,378.1,519.8,385.4,519.8,394.6 M489.9,394.6c0,7.3,5.9,13.4,13.4,13.4c7.3,0,13.4-5.9,13.4-13.4c0-7.3-5.9-13.4-13.4-13.4
		C495.8,381.4,489.9,387.3,489.9,394.6 M506.6,403.5l-1.4-3c-0.7-1.2-1.7-2.8-2.4-3.5c-0.7-0.7-1.4-0.9-3-0.9h-0.7v7.3h-3.5v-17.6
		h8.7c3.8,0,5.6,2.1,5.6,4.9c0,2.6-1.7,4.5-4.7,4.9v0.2c1.6,0.5,2.1,1,3.8,4.2l2.1,3.7h-4.5V403.5z M502.9,393.6
		c2.4,0,3.3-1.2,3.3-2.4c0-1.6-1.2-2.4-3.7-2.4h-3.3v4.9L502.9,393.6L502.9,393.6z"/>
	<path class="st0" d="M433.1,242.4l-10.8,14.1c43.7-0.5,64.9,5.4,64.7,24.5c0,17.1-4.2,52.2-9.7,70.5c-11.1,36.4-27.3,52-80.4,52
		c-58.3,0-106.1-12.9-136.2-20c-30.1-7.1-66.6-20.2-113.6-20.2c-13.7,0-35,1.7-46.3,6.6c-1,0.3-1.9,1-1.7,1.7s1.2,0.3,2.4,0.2
		c12.4-2.6,35.3-2.4,46.5-2.1c84.2,3,131.2,47.7,249.2,47.7c55.3,0,79.9-16.2,93.8-61.9c6.4-20.9,10.3-57.4,10.4-74.5
		C501.4,247.9,465,243.4,433.1,242.4"/>
	<path class="st2" d="M420.1,256.4c-3.3,7.3-6.3,13.9-13.4,23.5c27.3,0.5,53.4-3.7,64-8c1.9-0.7,2.6,0.2,0.9,1.6
		c-5.4,4-23.1,13.1-75.5,13.4c-28.4,0.2-71.2-7-130.7-24c-44.4-12.7-75.2-16.5-97.4-15.7l0,0c-37.2,0-68.7,10.6-83.7,54.6
		c-6.8,19.7-10.4,49.8-7.5,75.9c1.9,16,12,25.2,74.5,25.2c52.4,0,102-10.6,102-10.6c-43.7-13.9-67.7-18.8-90-21.6
		c-17.4-2.1-51.5-1.2-61.8,0.9c-2.4,0.5-3.1-1-0.7-1.9c13.6-4.7,31-6.8,45.6-6.8c47,0,84.2,13.2,114.3,20.4s78,20,136.2,20
		c53.1,0,69.3-15.7,80.4-52c5.6-18.3,9.7-53.2,9.7-70.5c0-22.6-30.5-23.3-54.5-24.5L420.1,256.4z"/>
	<path class="st0" d="M267,388.5c-24.5,6.3-63.5,14.3-115.9,14.3c-62.5,0-72.6-9.2-74.5-25.2c-3-25.9,0.9-56.2,7.5-75.9
		c15-44,46.6-54.6,83.7-54.6l0,0c22.1-0.7,53.1,3,97.4,15.7c59.3,17.1,102.3,24.2,130.7,24c52.4-0.3,70.1-9.4,75.5-13.4
		c1.7-1.2,1-2.3-0.9-1.6c-10.6,4.4-31.7,7.7-54.3,8c-64,0.7-93.3-15.1-147-30.6c-34.3-9.9-63-15.1-87.2-16.2l-3.7-0.2
		c-3.1,0-6.1,0-9,0h-1.4c-32.2,0-77.4,6.6-97.1,64c-8,23.5-11.3,55.7-8.2,82c3.7,32.2,33.9,38.1,88.6,38.1
		c46.5,0,112.6-13.6,136.2-21.9C287.3,395,276,393,267,388.5"/>
	<path class="st3" d="M461.5,227L461.5,227L461.5,227c0,0.2,0.2,0,0.3,0C461.7,227,461.5,227,461.5,227"/>
	<path class="st3" d="M481.9,127.2c1.4,1.7,2.8,4,4,6.4c2.3-6.3,1.6-13.4,1.2-17.4c-2.1-30.8-11.7-59-26.4-82.3
		c-0.5-0.7-1.4-0.9-2.1-0.5c-0.7,0.5-0.9,1.4-0.5,2.1c14.4,22.8,23.3,50.5,25.9,80.4C484.3,121.2,483.4,124.6,481.9,127.2"/>
	<path class="st3" d="M464.3,103c0.7-1.7,1.4-3.1,2.3-4.2c1.6-1.7,3.3-2.1,4.5-2.1c2.1,0,4.2,0.9,6.1,2.6c0.3,0.3,0.7,0.7,1,1
		c0-1.7-0.2-3.8-0.5-5.9c-0.3-2.8-8.2-15.1-11.8-14.4c-2.4,0.5-3.8,13.1-3.3,17.4C462.7,99,463.6,100.9,464.3,103"/>
	<path class="st3" d="M470.6,124.7c1.4-1,2.6-1.9,4-1.9s2.4,0.3,3.5,0.9c0.7-1.6,1.9-9.7,0.3-13.6c-2.1-4-4.9-8.2-7-8.2
		c-1.9,0-3.7,4.2-4.5,9.9C466.4,117.6,469.9,124,470.6,124.7"/>
	<path class="st3" d="M467.3,128.6c-3-3-4.4-8-5-11.5c-3.5-31-13.9-61.8-28.4-82.8c-0.5-0.7-1.4-0.9-2.1-0.3s-0.9,1.4-0.3,2.1
		c14.3,20.7,24.5,51,28,81.6c0.2,1,0.9,10.3,1.7,13.7c0.5,1.9,1.2,3.7,2.3,5C464.1,133.6,465.5,130.8,467.3,128.6"/>
	<path class="st3" d="M465,75.1c1.4-0.3,2.8,0,4.2,0.5c-0.2-3.3-0.7-8.2-1.9-10.4c-1.4-3-7-5.2-10.8-13.6
		c-6.4-14.1-14.1-26.3-22.8-36.2c-0.5-0.7-1.6-0.7-2.1-0.2c-0.7,0.5-0.7,1.6-0.2,2.3c8.7,9.7,16.2,22.1,22.6,36
		c3.5,7.5,1.6,13.1,2.8,16.9c0.7,2.1,2.6,5.2,4.2,7.5C462,76.5,463.2,75.5,465,75.1"/>
	<path class="st3" d="M464.1,160.9c0.3-0.7,0.7-1.2,1-1.9v-0.3c-0.3-1.9-1-3.8-1.6-5.7c-1-3.7-1.9-6.8-1.9-9.4c0-0.3,0-0.9,0.2-1.2
		c-2.4-2.4-4.4-4.9-5.6-9.9c-1.2-5-2.3-12.9-2.4-14.4c-3.1-23.8-9.7-46.1-19.1-64.6c-0.3-0.7-1.2-1-2.1-0.7c-0.7,0.3-1,1.4-0.7,2.1
		c11.7,23,19,52.2,20.5,82.8c0,0.5,0.2,2.1,0.2,2.1c0.5,4.9,2.4,11,6.8,16.5C460.6,157.8,462.4,159.4,464.1,160.9"/>
	<path class="st3" d="M496.5,127.3c-2.1-27-7.5-51.9-16-73.8c-0.3-0.9-1.2-1.2-1.9-0.9c-0.9,0.3-1.2,1.2-0.9,2.1
		c7.1,18.4,13.4,48.2,14.6,62.5c0.7,7.7,0.5,18.6-3.7,22.6c0.7,2.1,1,4.2,1,5.9c-0.2,3.3-1.7,7.7-3.8,13.7l-0.3,1.2
		c0.3,0.9,0.7,1.7,1,2.8c3-2.3,5.6-4.9,7-7.7C497.2,146.5,497.4,140.6,496.5,127.3"/>
	<path class="st3" d="M467.8,180.6c2.3-1.2,4.2-1.4,5.6-1l0,0h0.2c0.2,0,0.3,0.2,0.5,0.2s1.7,0.3,1.7,0.3l0.3,0.3
		c1.2,0.7,2.4,1.9,3.3,3.5c1.6-3.8,3-7.3,3.3-9.7c0.7-5.6-5-19.3-7.5-19.3c-2.6,0-9.9,11.8-10.1,17.4c-0.2,2.3,0.5,5.6,1.2,9
		C467.1,181.1,467.4,180.8,467.8,180.6"/>
	<path class="st3" d="M475.4,149.6c1.9,0,3.7,0.9,5.2,2.8c0.3,0.5,0.9,1,1.4,1.7c1.2-3.8,2.3-6.8,2.4-8.9c0.3-5.2-6.8-17.6-9.4-17.4
		c-2.4,0.2-8.5,10.6-8.4,15.5c0,2.4,1.2,6.3,2.3,10.3C471.1,151.4,473.3,149.6,475.4,149.6"/>
	<path class="st3" d="M459.6,187.5c0.9-0.9,1.6-1.7,2.4-2.6c-0.2-0.7-0.2-1.6-0.3-2.3c-0.9-4.2-1.4-7.7-1.4-10.6
		c0-1.6,0.7-3.8,1.6-6.3c-2.4-1.9-4.5-4-6.4-6.3c-0.9-1-1.6-2.3-2.3-3.3C451.1,161.8,449.3,178.5,459.6,187.5"/>
	<path class="st3" d="M473.3,184.8L473.3,184.8c-0.2,0-0.2,0-0.2,0c-3.8-1.7-15,10.6-16.2,17.1c-0.3,2.1-0.3,5-0.2,8.4
		c3.7-3.7,7.5-6.1,10.6-5c2.3,0.7,3.8,2.4,5,5.2c0.7,1.6,1,3.8,1.6,6.3c1.9-3,3.7-5.6,4.3-7.8C480.6,202.5,477.5,185.5,473.3,184.8"
		/>
	<path class="st3" d="M496.5,159.9c-2.1,3.3-5.4,6.1-8.9,8.7c0.5,2.3,0.7,4.5,0.3,6.3c-0.3,2.8-1.6,5.9-3.1,9.6
		c-0.9,2.1-1.7,4.4-2.4,6.4c0.2,0.9,0.5,1.7,0.7,2.8C499.4,185.3,498.4,164.6,496.5,159.9"/>
	<path class="st3" d="M451.9,215.4c0-0.9,0-1.7-0.2-2.6c-0.2-4.5-0.5-8.9,0.2-12c0.5-2.8,2.1-5.9,4.4-9c-3-2.4-4.9-5.2-6.3-7.8
		c-0.2-0.5-0.3-1-0.7-1.6C446.4,186.5,441.2,203.6,451.9,215.4C451.9,215.6,451.9,215.6,451.9,215.4"/>
	<path class="st3" d="M484,199c0.3,4.4,0.3,8.5-0.7,11.5c-1,3.1-3.5,6.6-5.9,10.3c-0.7,1-1.4,2.1-2.1,3.3
		c20.7-8,20.2-27.3,18.4-31.8C491.3,194.7,488.1,197.1,484,199"/>
	<path class="st3" d="M442.5,278.2c3.3-5.2,6.4-11,9.4-16.7c0.3-0.9,0.9-1.6,1.2-2.4c0.2-0.2,0.2-0.5,0.3-0.7
		c0.2-0.3,0.3-0.9,0.5-1.2c4.4-8.4,11.7-10.6,13.9-15c3.7-6.6,2.1-31.1-2.1-32.4c-3.1-0.9-17.1,17.2-18.8,21.6
		c-1.4,3.5,0.7,10.3,0.7,15c0,4.5-1.4,7.8-2.1,9.6c-0.5,1-1.2,2.3-1.7,3.3c-3.8,7.1-7.8,13.7-12.2,20.2
		C435.1,279.1,439.2,278.7,442.5,278.2"/>
	<path class="st3" d="M487.6,222.9c-3.3,2.4-7.3,4.5-11.8,6.1c0,6.1-0.7,12-2.6,15.3c-1.4,2.6-3.7,4.5-6.1,6.4c-1.4,1-3,2.3-4.2,3.7
		C487.3,249.5,489,229.1,487.6,222.9"/>
	<path class="st3" d="M442.4,249.5c0.2-0.9,0.3-1.9,0.3-3.1c0-1.4-0.2-3.3-0.5-5c-0.5-4-1-8.4,0.2-11.7c0.2-0.5,2.8-4.9,6.3-9.9
		c-3.5-3.7-5.4-7.5-6.6-11C437.7,212.9,427.1,232.3,442.4,249.5"/>
	<path class="st0" d="M218.6,325.5c-0.9,1-1.9,1.6-3,1c-5.4-3.3,8-31.8,11.1-38.1c0.3-0.7,0-1.6-0.9-2.1c-3-1.4-8.4-4.2-15.7-4.9
		c-27.7-3.1-45.9,24.2-45.9,39.8c0,8,3.8,14.4,12.7,14.1c9.7-0.3,18.3-9,24.7-19c-1,3.5-1.6,6.4-1.7,8.5c-0.7,8,3.5,11.1,8.7,11.7
		c8.4,0.9,11-6.8,11.1-10.3C220,325.9,219,325.2,218.6,325.5 M182.9,324.7c-2.1,0.2-3.5-1.4-3.5-4.5c0-13.6,15.5-32.5,29.1-31
		c1,0.2,1.9,0.3,2.8,0.5C204.5,302.2,191.8,324.1,182.9,324.7"/>
	<path class="st0" d="M456.6,310c-33.4-7.3-53.9,24.9-54.3,43c-0.2,8,3.8,14.8,12.7,13.7c10.3-1.2,18.6-13.6,24.9-26.8
		c-1.2,4.7-2.1,11.1-2.3,13.7c-0.5,8.2,3.5,10.3,8.5,8.7c8.2-2.6,10.6-12,11-15.8c0-0.7-0.9-1-1.4-0.2c-0.9,1.6-1.9,2.6-2.8,2.6
		c-5.4-0.7,1.2-28.4,4.4-36.9C457.7,311.1,457.3,310.6,456.6,310 M420.4,353.4c-2.1,0.5-3.1-0.5-3.1-2.4c0-13.6,14.3-35.7,26.3-33.4
		C436.8,333.7,429.1,351.6,420.4,353.4"/>
	<path class="st0" d="M301.9,299.4c-8.4-1.7-16.7,4.2-23.3,12.2c1.2-2.4,2.1-4,2.6-6.1c1.6-6.8-3-11.1-9.6-12.7
		c-8.2-1.7-16,4.2-22.4,12.2c1.6-3.7,2.6-6.1,3.1-8.2c1.4-5.6-2.8-8.7-7.1-9.6c-3.8-0.7-8,0-9.9,1.4c-0.5,0.3-0.5,1.4,0.2,1.9
		c2.6,1.6,2.3,4.2,0.5,9c-2.8,7.3-10.4,28.7-11.3,33.4c-0.7,3.7,0.7,5.9,5.7,6.8c6.8,1,9,1,9.6-1.7c0.2-1.2,0.3-2.6,0.5-4.4
		c3.5-20.9,18.8-31.3,23.1-30.3c2.8,0.5,1.4,4.2-0.2,7.8c-3.7,8.5-8.4,21.9-9.2,27.1c-0.5,3.7,0.3,5.9,6.4,7.1
		c7,1.4,8.9,1.4,9.2-1.4c0-0.7,0.2-1.4,0.2-2.1c1.7-20.2,19.5-32.5,24-31.8c1.7,0.2,1.7,2.3,0.7,4.7c-3,7.5-8.4,19.5-7.8,29.1
		c0.2,4.5,2.8,8.2,8.5,9.4c6.4,1.4,12-2.1,12.7-5c0.2-0.7-0.5-1.4-1.2-1.4c-1,0.2-2.4,0.3-3.3-0.5c-2.3-1.9-1.9-6.8,0.5-14.6
		c3.5-11.1,6.3-16,7.1-19.5C313.3,304.8,308.7,300.8,301.9,299.4"/>
	<path class="st0" d="M381.3,322.9c0.2-2.4,2.3-5.2,7.3-5.2c6.1,0,8.2,5.4,5.6,8.9c-0.5,0.7,0,1.4,0.7,1.4c3.7,0,9.6-1.6,9.9-7.5
		c0.3-5.2-5.2-9.6-17.1-9.6c-8.7,0-19.3,4.2-20,13.2c-0.9,12,15.1,20.4,14.6,28.5c-0.3,4.2-3.8,7.7-9.7,6.8
		c-4.7-0.7-7.7-4.4-7.1-8.7c0.2-2.4,1.4-3.8,3.7-5c0.5-0.3,0.3-1-0.2-1.4c-6.8-3.3-13.7,0.3-14.6,5.9c-1,7,5.9,14.3,18.8,15.3
		c12.9,1,23.7-4.9,24.4-14.6C398.2,338.2,380.6,331.6,381.3,322.9"/>
	<path class="st0" d="M161.7,300.1c-2.8,0.3-5.7,0.7-8.5,1c0,0-1.2,0.2-5.2,0.9c-5.9,1-10.3,5.4-11.1,9.9c-0.5,2.3,0.2,3.3,1,3.1
		c1.4-0.3,1.7-0.9,5.9-1.7c0.2,0,0.5,0,0.9-0.2c1-0.2,1.6,0.3,1,1.6l0,0c-0.2,0.3-0.2,0.5-0.3,0.9c-4.9,12.5-8.9,18.4-14.3,20
		c-6.3,1.9-12.2-5-4.7-26.6c8.7-24.9,22.1-34.5,29.4-35.3c4-0.5,5.7,1.2,6.3,3.7c0.5,2.3-0.7,5-2.1,6.8c-0.3,0.5-0.2,1.2,0.5,1.2
		c5.9,0.5,14.1-2.8,14.1-9.9c-0.2-7.8-9.9-9.9-17.1-9c-24.7,2.3-47.2,30.3-50.6,56c-2.6,16.7,8.7,23.1,20.9,21.2s22.4-9.9,30.5-26.8
		c2.4-5,2.6-6.3,5-11.5C164.8,302,164.5,299.9,161.7,300.1"/>
	<path class="st0" d="M326.3,338.8c14.4,3.5,33.8-1.7,35.1-16.5c0.7-7.1-4.5-12.7-12.7-14.1c-20-3.3-36.5,16.7-36.5,32.5
		c0,12.9,8.9,18.1,18.3,19.5c10.6,1.7,18.3-3.3,21.1-8.2c0.5-0.9-0.3-2.1-1.2-1.6c-4.2,2.6-8.7,4-14.6,3
		C327.9,352.5,325.1,348.3,326.3,338.8C326.1,338.9,326.1,338.9,326.3,338.8 M344.4,314.6c3.1,0.5,4.9,3,3.8,6.6
		c-2.3,8.5-12.5,13.2-21.1,12.7C330,323.8,336.8,313.3,344.4,314.6"/>
</g>
</svg>
