<?xml version="1.0" encoding="utf-8"?>
<!-- Generator: Adobe Illustrator 26.3.1, SVG Export Plug-In . SVG Version: 6.00 Build 0)  -->
<svg version="1.1" id="Capa_1" xmlns="http://www.w3.org/2000/svg" xmlns:xlink="http://www.w3.org/1999/xlink" x="0px" y="0px"
	 viewBox="0 0 242.2 89.1" style="enable-background:new 0 0 242.2 89.1;" xml:space="preserve">
<style type="text/css">
	.st0{fill:#FFFFFF;}
	.st1{fill:#2E0052;}
	.st2{fill:#161615;}
</style>
<g id="Rectángulo_433">
	<path class="st0" d="M50.8,18.4h140.6c16.7,0,30.1,13.5,30.1,30.1l0,0c0,16.7-13.5,30.1-30.1,30.1H50.8
		c-16.7,0-30.1-13.5-30.1-30.1l0,0C20.7,31.8,34.1,18.4,50.8,18.4z"/>
	<path class="st1" d="M191.4,81.1H50.8c-17.9,0-32.5-14.6-32.5-32.6C18.3,30.6,32.9,16,50.8,16h140.6c17.9,0,32.5,14.6,32.5,32.5
		C223.9,66.5,209.3,81.1,191.4,81.1z M50.8,20.7C35.6,20.7,23,33.2,23,48.5c0,15.4,12.4,27.8,27.8,27.8h140.6
		c15.4,0,27.8-12.4,27.8-27.8c0-15.3-12.4-27.8-27.8-27.8H50.8z"/>
</g>
<g id="Grupo_2532" transform="translate(0 0)">
	<g id="Trazado_4612">
		<path class="st2" d="M166.8,60.1c-0.1-0.1-0.2-0.2-0.3-0.3c-0.5-0.5-0.9-0.9-1.5-1.5c-0.1-0.1-0.2-0.3-0.2-0.5c0-2.3,0-4.4,0-6.7
			c0-0.2,0.1-0.3,0.2-0.5c0.6-0.6,1.1-1.1,1.7-1.8c0.2,0.2,0.3,0.3,0.4,0.4c0.5,0.5,0.9,0.9,1.4,1.4c0.1,0.1,0.2,0.3,0.2,0.5
			c0,2.1,0,4.1,0,6.1v0.1c0,0.8,0.1,0.7-0.6,1.2c-0.4,0.4-0.8,0.8-1.1,1.1C167,59.9,166.9,60,166.8,60.1"/>
	</g>
	<g id="Trazado_4613">
		<path class="st2" d="M178.6,48.3L178.6,48.3c-0.6,0.6-1.1,1.1-1.6,1.6c-0.2,0.2-0.4,0.3-0.6,0.3c-2.2,0-4.3,0-6.5,0
			c-0.3,0-0.5-0.1-0.7-0.3c-0.4-0.5-0.8-0.8-1.2-1.2c-0.1-0.1-0.2-0.2-0.4-0.3c0.1-0.1,0.1-0.2,0.2-0.2c0.5-0.6,1-1,1.5-1.6
			c0.1-0.1,0.3-0.2,0.5-0.2c2.3,0,4.4,0,6.7,0c0.2,0,0.3,0,0.4,0.2C177.3,47.1,177.9,47.7,178.6,48.3
			C178.5,48.2,178.5,48.2,178.6,48.3"/>
	</g>
	<g id="Trazado_4614">
		<path class="st2" d="M178.6,60.8l-1,1c-0.2,0.2-0.5,0.5-0.7,0.7c-0.2,0.2-0.4,0.3-0.6,0.3c-2.2,0-4.3,0-6.5,0
			c-0.2,0-0.4,0-0.5-0.2c-0.6-0.6-1.1-1.1-1.8-1.7c0-0.1,0.1-0.1,0.2-0.2c0.5-0.6,1-1,1.5-1.6c0.1-0.1,0.3-0.2,0.5-0.2
			c0.4,0,0.8,0,1.2,0c1.8,0,3.6,0,5.4,0c0.2,0,0.3,0,0.4,0.1C177.3,59.6,177.9,60.2,178.6,60.8C178.5,60.8,178.5,60.8,178.6,60.8"/>
	</g>
	<g id="Trazado_4615">
		<path class="st2" d="M179.4,36.5c0.2,0.2,0.5,0.4,0.7,0.7c0.4,0.4,0.8,0.8,1.1,1.1c0.1,0.1,0.2,0.3,0.2,0.5c0,2.3,0,4.4,0,6.7
			c0,0.1,0,0.3-0.1,0.4c-0.6,0.6-1.1,1.1-1.7,1.7l-0.1,0.1c-0.7-0.6-1.2-1.2-1.8-1.8c-0.1-0.1-0.1-0.3-0.1-0.4c0-0.6,0-1.1,0-1.8
			c0-1.6,0-3.1,0-4.7c0-0.3,0.1-0.6,0.3-0.8c0.5-0.5,0.9-0.8,1.3-1.3C179.1,36.7,179.2,36.6,179.4,36.5"/>
	</g>
	<g id="Trazado_4616">
		<path class="st2" d="M178.6,35.7c-0.5,0.5-0.8,0.8-1.3,1.3c-0.4,0.5-0.9,0.7-1.4,0.6c-2,0-4,0-5.9,0c-0.3,0-0.5-0.1-0.7-0.3
			c-0.5-0.5-0.9-0.9-1.4-1.4c-0.1-0.1-0.1-0.2-0.2-0.2c0.1-0.1,0.1-0.2,0.2-0.2c0.5-0.5,1-0.9,1.5-1.5c0.1-0.2,0.3-0.2,0.6-0.2
			c2.1,0,4.1,0,6.1,0c0.6-0.1,1,0.2,1.3,0.6c0.3,0.4,0.8,0.8,1,1C178.4,35.5,178.5,35.6,178.6,35.7"/>
	</g>
	<g id="Trazado_4617">
		<path class="st2" d="M186.5,60.1c-0.1-0.1-0.2-0.2-0.3-0.3c-0.5-0.5-0.9-0.9-1.5-1.5c-0.1-0.1-0.2-0.3-0.2-0.5c0-2.3,0-4.4,0-6.7
			c0-0.2,0.1-0.3,0.2-0.5c0.6-0.6,1.1-1.1,1.7-1.8c0.2,0.2,0.3,0.3,0.4,0.4c0.5,0.5,0.9,0.9,1.4,1.4c0.1,0.1,0.2,0.3,0.2,0.5
			c0,2.1,0,4.1,0,6.1v0.1c0,0.8,0.1,0.7-0.6,1.2c-0.4,0.4-0.8,0.8-1.1,1.1C186.7,59.9,186.6,60,186.5,60.1"/>
	</g>
	<g id="Trazado_4618">
		<path class="st2" d="M198.3,48.3L198.3,48.3c-0.6,0.6-1.1,1.1-1.6,1.6c-0.2,0.2-0.4,0.3-0.6,0.3c-2.2,0-4.3,0-6.5,0
			c-0.3,0-0.5-0.1-0.7-0.3c-0.4-0.5-0.8-0.8-1.2-1.2c-0.1-0.1-0.2-0.2-0.4-0.3c0.1-0.1,0.1-0.2,0.2-0.2c0.5-0.6,1-1,1.5-1.6
			c0.1-0.1,0.3-0.2,0.5-0.2c2.3,0,4.4,0,6.7,0c0.2,0,0.3,0,0.4,0.2C197.1,47.1,197.7,47.7,198.3,48.3
			C198.3,48.2,198.3,48.2,198.3,48.3"/>
	</g>
	<g id="Trazado_4619">
		<path class="st2" d="M198.3,60.8l-1,1c-0.2,0.2-0.5,0.5-0.7,0.7c-0.2,0.2-0.4,0.3-0.6,0.3c-2.2,0-4.3,0-6.5,0
			c-0.2,0-0.4,0-0.5-0.2c-0.6-0.6-1.1-1.1-1.8-1.7c0-0.1,0.1-0.1,0.2-0.2c0.5-0.6,1-1,1.5-1.6c0.1-0.1,0.3-0.2,0.5-0.2
			c0.4,0,0.8,0,1.2,0c1.8,0,3.6,0,5.4,0c0.2,0,0.3,0,0.4,0.1C197,59.6,197.7,60.2,198.3,60.8L198.3,60.8"/>
	</g>
	<g id="Trazado_4620">
		<path class="st2" d="M199.1,36.5c0.2,0.2,0.5,0.4,0.7,0.7c0.4,0.4,0.8,0.8,1.1,1.1c0.1,0.1,0.2,0.3,0.2,0.5c0,2.3,0,4.4,0,6.7
			c0,0.1,0,0.3-0.1,0.4c-0.6,0.6-1.1,1.1-1.7,1.7l-0.1,0.1c-0.7-0.6-1.2-1.2-1.8-1.8c-0.1-0.1-0.1-0.3-0.1-0.4c0-0.6,0-1.1,0-1.8
			c0-1.6,0-3.1,0-4.7c0-0.3,0.1-0.6,0.3-0.8c0.5-0.5,0.9-0.8,1.3-1.3C198.9,36.7,199,36.6,199.1,36.5"/>
	</g>
	<g id="Trazado_4621">
		<path class="st2" d="M198.3,35.7c-0.5,0.5-0.8,0.8-1.3,1.3c-0.4,0.5-0.9,0.7-1.4,0.6c-2,0-4,0-5.9,0c-0.3,0-0.5-0.1-0.7-0.3
			c-0.5-0.5-0.9-0.9-1.4-1.4c-0.1-0.1-0.1-0.2-0.2-0.2c0.1-0.1,0.1-0.2,0.2-0.2c0.5-0.5,1-0.9,1.5-1.5c0.1-0.2,0.3-0.2,0.6-0.2
			c2.1,0,4.1,0,6.1,0c0.6-0.1,1,0.2,1.3,0.6c0.3,0.4,0.8,0.8,1,1C198.1,35.5,198.2,35.6,198.3,35.7"/>
	</g>
	<g id="Trazado_4622">
		<path class="st2" d="M119.4,60.8c-0.7,0.7-1.2,1.2-1.8,1.9c-0.1,0.1-0.2,0.1-0.3,0.1s-0.1,0-0.2,0c-2.2,0-4.3,0-6.6,0
			c-0.2,0-0.3,0-0.5-0.2c-0.6-0.6-1.1-1.1-1.8-1.8c0.1-0.1,0.1-0.2,0.2-0.2c0.5-0.5,1-1,1.5-1.5c0.1-0.2,0.3-0.2,0.6-0.2
			c2.3,0,4.4,0,6.7,0c0.2,0,0.4,0.1,0.5,0.2C118.2,59.7,118.7,60.3,119.4,60.8"/>
	</g>
	<g id="Trazado_4623">
		<path class="st2" d="M107.7,49.2c0.7,0.6,1.2,1.1,1.8,1.8c0.1,0.1,0.1,0.2,0.1,0.3c0,2.3,0,4.4,0,6.7c0,0.1,0,0.3-0.1,0.4
			c-0.6,0.6-1.1,1.2-1.8,1.8c-0.1-0.1-0.2-0.1-0.3-0.2c-0.5-0.5-0.9-0.9-1.4-1.4c-0.2-0.2-0.3-0.4-0.3-0.7c0-2.2,0-4.3,0-6.5
			c0-0.2,0.1-0.4,0.2-0.5C106.6,50.2,107.2,49.6,107.7,49.2"/>
	</g>
	<g id="Trazado_4624">
		<path class="st2" d="M107.7,47.5c-0.1-0.1-0.2-0.2-0.3-0.3c-0.5-0.5-0.9-0.9-1.4-1.4c-0.2-0.2-0.3-0.4-0.2-0.6c0-2.2,0-4.3,0-6.5
			c0-0.2,0.1-0.4,0.2-0.6c0.5-0.5,0.9-0.9,1.4-1.4c0.1-0.1,0.2-0.2,0.3-0.2c0.1,0.1,0.2,0.2,0.3,0.3c0.5,0.5,0.9,0.9,1.4,1.3
			c0.2,0.1,0.2,0.3,0.2,0.6c0,2.2,0,4.3,0,6.5c0,0.3-0.1,0.5-0.3,0.7C108.9,46.3,108.3,46.9,107.7,47.5"/>
	</g>
	<g id="Trazado_4625">
		<path class="st2" d="M120,36.4c0.7,0.7,1.2,1.2,1.8,1.8c0.1,0.1,0.1,0.3,0.1,0.4c0,1.9,0,3.9,0,5.7c0,0.2,0,0.4,0,0.6
			c0.1,0.4-0.1,0.8-0.4,1c-0.5,0.5-0.9,0.9-1.5,1.4c-0.1-0.1-0.2-0.1-0.3-0.2c-0.5-0.5-1-1-1.5-1.5c-0.2-0.1-0.2-0.3-0.2-0.6
			c0-1.8,0-3.5,0-5.3c0-0.5,0-0.9,0-1.4c0-0.1,0-0.2,0.1-0.3C118.7,37.8,119.3,37.1,120,36.4"/>
	</g>
	<g id="Trazado_4626">
		<path class="st2" d="M119.3,35.7c-0.1,0.1-0.2,0.2-0.3,0.3c-0.5,0.5-1,0.9-1.5,1.5c-0.1,0.1-0.3,0.2-0.5,0.2c-2.2,0-4.4,0-6.6,0
			c-0.2,0-0.5-0.1-0.6-0.3c-0.6-0.6-1-1.1-1.6-1.7c0.1-0.1,0.1-0.2,0.2-0.2c0.5-0.6,1-1,1.6-1.6c0.1-0.1,0.2-0.2,0.4-0.2
			c2.2,0,4.4,0,6.6,0c0.3,0,0.5,0.1,0.7,0.3C118.2,34.7,118.7,35.1,119.3,35.7"/>
	</g>
	<g id="Trazado_4627">
		<path class="st2" d="M120,60.1c-0.2-0.2-0.5-0.4-0.7-0.7c-0.4-0.4-0.8-0.8-1.1-1.1c-0.2-0.1-0.2-0.3-0.2-0.5c0-2.2,0-4.3,0-6.6
			c0-0.2,0.1-0.4,0.2-0.6c0.6-0.6,1.1-1.1,1.7-1.7c0.3,0.3,0.6,0.6,0.8,0.8c0.3,0.3,0.7,0.7,0.9,0.9c0.1,0.1,0.2,0.3,0.2,0.4
			c0,2.3,0,4.4,0,6.7c0,0.1,0,0.3-0.1,0.4C121.2,58.9,120.6,59.4,120,60.1"/>
	</g>
	<g id="Trazado_4628">
		<path class="st2" d="M139.1,60.8c-0.7,0.7-1.2,1.2-1.8,1.9c-0.1,0.1-0.2,0.1-0.3,0.1c-0.1,0-0.1,0-0.2,0c-2.2,0-4.3,0-6.6,0
			c-0.2,0-0.3,0-0.5-0.2c-0.6-0.6-1.1-1.1-1.8-1.8c0.1-0.1,0.1-0.2,0.2-0.2c0.5-0.5,1-1,1.5-1.5c0.1-0.2,0.3-0.2,0.6-0.2
			c2.3,0,4.4,0,6.7,0c0.2,0,0.4,0.1,0.5,0.2C138,59.7,138.5,60.3,139.1,60.8"/>
	</g>
	<g id="Trazado_4629">
		<path class="st2" d="M127.4,49.2c0.7,0.6,1.2,1.1,1.8,1.8c0.1,0.1,0.1,0.2,0.1,0.3c0,2.3,0,4.4,0,6.7c0,0.1,0,0.3-0.1,0.4
			c-0.6,0.6-1.1,1.2-1.8,1.8c-0.1-0.1-0.2-0.1-0.3-0.2c-0.5-0.5-0.9-0.9-1.4-1.4c-0.2-0.2-0.3-0.4-0.3-0.7c0-2.2,0-4.3,0-6.5
			c0-0.2,0.1-0.4,0.2-0.5C126.3,50.2,126.9,49.6,127.4,49.2"/>
	</g>
	<g id="Trazado_4630">
		<path class="st2" d="M127.5,47.5c-0.1-0.1-0.2-0.2-0.3-0.3c-0.5-0.5-0.9-0.9-1.4-1.4c-0.2-0.2-0.3-0.4-0.2-0.6c0-2.2,0-4.3,0-6.5
			c0-0.2,0.1-0.4,0.2-0.6c0.5-0.5,0.9-0.9,1.4-1.4c0.1-0.1,0.2-0.2,0.3-0.2c0.1,0.1,0.2,0.2,0.3,0.3c0.5,0.5,0.9,0.9,1.4,1.3
			c0.2,0.1,0.2,0.3,0.2,0.6c0,2.2,0,4.3,0,6.5c0,0.3-0.1,0.5-0.3,0.7C128.5,46.3,128.1,46.9,127.5,47.5"/>
	</g>
	<g id="Trazado_4631">
		<path class="st2" d="M139.7,36.4c0.7,0.7,1.2,1.2,1.8,1.8c0.1,0.1,0.1,0.3,0.1,0.4c0,1.9,0,3.9,0,5.7c0,0.2,0,0.4,0,0.6
			c0.1,0.4-0.1,0.8-0.4,1c-0.5,0.5-0.9,0.9-1.5,1.4c-0.1-0.1-0.2-0.1-0.3-0.2c-0.5-0.5-1-1-1.5-1.5c-0.2-0.1-0.2-0.3-0.2-0.6
			c0-1.8,0-3.5,0-5.3c0-0.5,0-0.9,0-1.4c0-0.1,0-0.2,0.1-0.3C138.4,37.8,139,37.1,139.7,36.4"/>
	</g>
	<g id="Trazado_4632">
		<path class="st2" d="M139.1,35.7c-0.1,0.1-0.2,0.2-0.3,0.3c-0.5,0.5-1,0.9-1.5,1.5c-0.1,0.1-0.3,0.2-0.4,0.2c-2.2,0-4.4,0-6.6,0
			c-0.2,0-0.5-0.1-0.6-0.3c-0.6-0.6-1-1.1-1.6-1.7c0.1-0.1,0.1-0.2,0.2-0.2c0.5-0.6,1-1,1.5-1.6c0.1-0.1,0.2-0.2,0.4-0.2
			c2.2,0,4.4,0,6.6,0c0.3,0,0.5,0.1,0.7,0.3C138,34.7,138.5,35.1,139.1,35.7"/>
	</g>
	<g id="Trazado_4633">
		<path class="st2" d="M139.7,60.1c-0.2-0.2-0.5-0.4-0.7-0.7c-0.4-0.4-0.8-0.8-1.1-1.1c-0.2-0.1-0.2-0.3-0.2-0.5c0-2.2,0-4.3,0-6.6
			c0-0.2,0.1-0.4,0.2-0.6c0.6-0.6,1.1-1.1,1.7-1.7c0.3,0.3,0.6,0.6,0.8,0.8c0.3,0.3,0.7,0.7,0.9,0.9c0.1,0.1,0.2,0.3,0.2,0.4
			c0,2.3,0,4.4,0,6.7c0,0.1,0,0.3-0.1,0.4C140.9,58.9,140.3,59.4,139.7,60.1"/>
	</g>
	<g id="Trazado_4634">
		<path class="st2" d="M158.8,60.8c-0.7,0.7-1.2,1.2-1.8,1.9c-0.1,0.1-0.2,0.1-0.3,0.1c-0.1,0-0.1,0-0.2,0c-2.2,0-4.3,0-6.6,0
			c-0.2,0-0.3,0-0.5-0.2c-0.6-0.6-1.1-1.1-1.8-1.8c0.1-0.1,0.1-0.2,0.2-0.2c0.5-0.5,1-1,1.5-1.5c0.1-0.2,0.3-0.2,0.6-0.2
			c2.3,0,4.4,0,6.7,0c0.2,0,0.4,0.1,0.5,0.2C157.7,59.7,158.2,60.3,158.8,60.8"/>
	</g>
	<g id="Trazado_4635">
		<path class="st2" d="M147.2,49.2c0.7,0.6,1.2,1.1,1.8,1.8c0.1,0.1,0.1,0.2,0.1,0.3c0,2.3,0,4.4,0,6.7c0,0.1,0,0.3-0.1,0.4
			c-0.6,0.6-1.1,1.2-1.8,1.8c-0.1-0.1-0.2-0.1-0.3-0.2c-0.5-0.5-0.9-0.9-1.4-1.4c-0.2-0.2-0.3-0.4-0.3-0.7c0-2.2,0-4.3,0-6.5
			c0-0.2,0.1-0.4,0.2-0.5C146.1,50.2,146.6,49.6,147.2,49.2"/>
	</g>
	<g id="Trazado_4636">
		<path class="st2" d="M147.2,47.5c-0.1-0.1-0.2-0.2-0.3-0.3c-0.5-0.5-0.9-0.9-1.4-1.4c-0.2-0.2-0.3-0.4-0.2-0.6c0-2.2,0-4.3,0-6.5
			c0-0.2,0.1-0.4,0.2-0.6c0.5-0.5,0.9-0.9,1.4-1.4c0.1-0.1,0.2-0.2,0.3-0.2c0.1,0.1,0.2,0.2,0.3,0.3c0.5,0.5,0.9,0.9,1.4,1.3
			c0.2,0.1,0.2,0.3,0.2,0.6c0,2.2,0,4.3,0,6.5c0,0.3-0.1,0.5-0.3,0.7C148.3,46.3,147.8,46.9,147.2,47.5"/>
	</g>
	<g id="Trazado_4637">
		<path class="st2" d="M159.4,36.4c0.7,0.7,1.2,1.2,1.8,1.8c0.1,0.1,0.1,0.3,0.1,0.4c0,1.9,0,3.9,0,5.7c0,0.2,0,0.4,0,0.6
			c0.1,0.4-0.1,0.8-0.4,1c-0.5,0.5-0.9,0.9-1.5,1.4c-0.1-0.1-0.2-0.1-0.3-0.2c-0.5-0.5-1-1-1.5-1.5c-0.2-0.1-0.2-0.3-0.2-0.6
			c0-1.8,0-3.5,0-5.3c0-0.5,0-0.9,0-1.4c0-0.1,0-0.2,0.1-0.3C158.1,37.8,158.8,37.1,159.4,36.4"/>
	</g>
	<g id="Trazado_4638">
		<path class="st2" d="M158.8,35.7c-0.1,0.1-0.2,0.2-0.3,0.3c-0.5,0.5-1,0.9-1.5,1.5c-0.1,0.1-0.3,0.2-0.5,0.2c-2.2,0-4.4,0-6.6,0
			c-0.2,0-0.5-0.1-0.6-0.3c-0.6-0.6-1-1.1-1.6-1.7c0.1-0.1,0.1-0.2,0.2-0.2c0.5-0.6,1-1,1.6-1.6c0.1-0.1,0.2-0.2,0.4-0.2
			c2.2,0,4.4,0,6.6,0c0.3,0,0.5,0.1,0.7,0.3C157.7,34.7,158.2,35.1,158.8,35.7"/>
	</g>
	<g id="Trazado_4639">
		<path class="st2" d="M159.4,60.1c-0.2-0.2-0.5-0.4-0.7-0.7c-0.4-0.4-0.8-0.8-1.1-1.1c-0.2-0.1-0.2-0.3-0.2-0.5c0-2.2,0-4.3,0-6.6
			c0-0.2,0.1-0.4,0.2-0.6c0.6-0.6,1.1-1.1,1.7-1.7c0.3,0.3,0.6,0.6,0.8,0.8c0.3,0.3,0.7,0.7,0.9,0.9c0.1,0.1,0.2,0.3,0.2,0.4
			c0,2.3,0,4.4,0,6.7c0,0.1,0,0.3-0.1,0.4C160.7,58.9,160,59.4,159.4,60.1"/>
	</g>
	<g id="Trazado_4640">
		<path class="st2" d="M60.1,60.8c-0.7,0.7-1.2,1.2-1.8,1.9c-0.1,0.1-0.2,0.1-0.3,0.1c-0.1,0-0.1,0-0.2,0c-2.2,0-4.3,0-6.6,0
			c-0.2,0-0.3,0-0.5-0.2c-0.6-0.6-1.1-1.1-1.8-1.8c0.1-0.1,0.1-0.2,0.2-0.2c0.5-0.5,1-1,1.5-1.5C50.8,59,51,59,51.3,59
			c2.3,0,4.4,0,6.7,0c0.2,0,0.4,0.1,0.5,0.2C59,59.7,59.6,60.3,60.1,60.8"/>
	</g>
	<g id="Trazado_4641">
		<path class="st2" d="M48.6,49.2c0.7,0.6,1.2,1.1,1.8,1.8c0.1,0.1,0.1,0.2,0.1,0.3c0,2.3,0,4.4,0,6.7c0,0.1,0,0.3-0.1,0.4
			c-0.6,0.6-1.1,1.2-1.8,1.8c-0.1-0.1-0.2-0.1-0.3-0.2c-0.5-0.5-0.9-0.9-1.4-1.4c-0.2-0.2-0.3-0.4-0.3-0.7c0-2.2,0-4.3,0-6.5
			c0-0.2,0.1-0.4,0.2-0.5C47.3,50.2,48,49.6,48.6,49.2"/>
	</g>
	<g id="Trazado_4642">
		<path class="st2" d="M48.6,47.5c-0.1-0.1-0.2-0.2-0.3-0.3c-0.5-0.5-0.9-0.9-1.4-1.4c-0.2-0.1-0.3-0.3-0.3-0.6c0-2.2,0-4.3,0-6.5
			c0-0.2,0.1-0.4,0.2-0.6c0.5-0.5,0.9-0.9,1.4-1.4c0.1-0.1,0.2-0.2,0.3-0.2c0.1,0.1,0.2,0.2,0.3,0.3c0.5,0.5,0.9,0.9,1.4,1.3
			c0.2,0.1,0.2,0.3,0.2,0.6c0,2.2,0,4.3,0,6.5c0,0.3-0.1,0.5-0.3,0.7C49.7,46.3,49.1,46.9,48.6,47.5"/>
	</g>
	<g id="Trazado_4643">
		<path class="st2" d="M60.8,36.4c0.7,0.7,1.2,1.2,1.8,1.8c0.1,0.1,0.1,0.3,0.1,0.4c0,1.9,0,3.9,0,5.7c0,0.2,0,0.4,0,0.6
			c0.1,0.4-0.1,0.8-0.4,1c-0.5,0.5-0.9,0.9-1.5,1.4c-0.1-0.1-0.2-0.1-0.3-0.2c-0.5-0.5-1-1-1.5-1.5c-0.2,0-0.2-0.2-0.2-0.4
			c0-1.8,0-3.5,0-5.3c0-0.5,0-0.9,0-1.4c0-0.1,0-0.2,0.1-0.3C59.5,37.8,60.1,37.1,60.8,36.4"/>
	</g>
	<g id="Trazado_4644">
		<path class="st2" d="M60.1,35.7c-0.1,0.1-0.2,0.2-0.3,0.3c-0.5,0.5-1,0.9-1.5,1.5c-0.1,0.1-0.3,0.2-0.5,0.2c-2.2,0-4.4,0-6.6,0
			c-0.2,0-0.5-0.1-0.6-0.3c-0.6-0.6-1-1.1-1.6-1.7c0.1-0.1,0.1-0.2,0.2-0.2c0.5-0.6,1-1,1.5-1.6c0.1-0.1,0.2-0.2,0.4-0.2
			c2.2,0,4.4,0,6.6,0c0.3,0,0.5,0.1,0.7,0.3C59,34.7,59.6,35.1,60.1,35.7"/>
	</g>
	<g id="Trazado_4645">
		<path class="st2" d="M60.8,60.1c-0.2-0.2-0.5-0.4-0.7-0.7c-0.4-0.4-0.8-0.8-1.1-1.1c-0.2-0.1-0.2-0.3-0.2-0.5c0-2.2,0-4.3,0-6.6
			c0-0.2,0.1-0.4,0.2-0.6c0.6-0.6,1.1-1.1,1.7-1.7c0.3,0.3,0.6,0.6,0.8,0.8c0.3,0.3,0.7,0.7,0.9,0.9c0.1,0.1,0.2,0.3,0.2,0.4
			c0,2.3,0,4.4,0,6.7c0,0.1,0,0.3-0.1,0.4C61.9,58.9,61.4,59.4,60.8,60.1"/>
	</g>
	<g id="Trazado_4646">
		<path class="st2" d="M79.9,60.8c-0.7,0.7-1.2,1.2-1.8,1.9c-0.1,0.1-0.2,0.1-0.3,0.1c-0.1,0-0.1,0-0.2,0c-2.2,0-4.3,0-6.6,0
			c-0.2,0-0.3,0-0.5-0.2c-0.6-0.6-1.1-1.1-1.8-1.8c0.1-0.1,0.1-0.2,0.2-0.2c0.5-0.5,1-1,1.5-1.5c0.1-0.2,0.3-0.2,0.6-0.2
			c2.2,0,4.4,0,6.7,0c0.2,0,0.4,0.1,0.5,0.2C78.7,59.7,79.3,60.3,79.9,60.8"/>
	</g>
	<g id="Trazado_4647">
		<path class="st2" d="M68.2,49.2c0.7,0.6,1.2,1.1,1.8,1.8c0.1,0.1,0.1,0.2,0.1,0.3c0,2.3,0,4.4,0,6.7c0,0.1,0,0.3-0.1,0.4
			c-0.6,0.6-1.1,1.2-1.8,1.8C68.2,60,68.1,60,68,59.9c-0.5-0.5-0.9-0.9-1.4-1.4c-0.2-0.2-0.3-0.4-0.3-0.7c0-2.2,0-4.3,0-6.5
			c0-0.2,0.1-0.4,0.2-0.5C67.1,50.2,67.7,49.6,68.2,49.2"/>
	</g>
	<g id="Trazado_4648">
		<path class="st2" d="M68.2,47.5c-0.1-0.1-0.2-0.2-0.3-0.3c-0.5-0.5-0.9-0.9-1.4-1.4c-0.2-0.1-0.2-0.3-0.2-0.6c0-2.2,0-4.3,0-6.5
			c0-0.2,0.1-0.4,0.2-0.6c0.5-0.5,0.9-0.9,1.4-1.4c0.1-0.1,0.2-0.2,0.3-0.2c0.1,0.1,0.2,0.2,0.3,0.3c0.5,0.5,0.9,0.9,1.4,1.3
			c0.2,0.1,0.2,0.3,0.2,0.6c0,2.2,0,4.3,0,6.5c0,0.3-0.1,0.5-0.3,0.7C69.4,46.3,68.8,46.9,68.2,47.5"/>
	</g>
	<g id="Trazado_4649">
		<path class="st2" d="M80.5,36.4c0.7,0.7,1.2,1.2,1.8,1.8c0.1,0.1,0.1,0.3,0.1,0.4c0,1.9,0,3.9,0,5.7c0,0.2,0,0.4,0,0.6
			c0.1,0.4-0.1,0.8-0.4,1c-0.5,0.5-0.9,0.9-1.5,1.4c-0.1-0.1-0.2-0.1-0.3-0.2c-0.5-0.5-1-1-1.5-1.5c-0.2-0.1-0.2-0.3-0.2-0.6
			c0-1.8,0-3.5,0-5.3c0-0.5,0-0.9,0-1.4c0-0.1,0-0.2,0.1-0.3C79.3,37.8,79.8,37.1,80.5,36.4"/>
	</g>
	<g id="Trazado_4650">
		<path class="st2" d="M79.8,35.7c-0.1,0.1-0.2,0.2-0.3,0.3c-0.5,0.5-1,0.9-1.5,1.5c0,0.1-0.2,0.2-0.4,0.2c-2.2,0-4.4,0-6.6,0
			c-0.2,0-0.5-0.1-0.6-0.3c-0.6-0.6-1-1.1-1.6-1.7c0.1-0.1,0.1-0.2,0.2-0.2c0.5-0.6,1-1,1.5-1.6c0.1-0.1,0.2-0.2,0.4-0.2
			c2.2,0,4.4,0,6.6,0c0.3,0,0.5,0.1,0.7,0.3C78.7,34.7,79.3,35.1,79.8,35.7"/>
	</g>
	<g id="Trazado_4651">
		<path class="st2" d="M80.5,60.1c-0.2-0.2-0.5-0.4-0.7-0.7c-0.4-0.4-0.8-0.8-1.1-1.1c-0.2-0.1-0.2-0.3-0.2-0.5c0-2.2,0-4.3,0-6.6
			c0-0.2,0.1-0.4,0.2-0.6c0.6-0.6,1.1-1.1,1.7-1.7c0.3,0.3,0.6,0.6,0.8,0.8c0.3,0.3,0.7,0.7,0.9,0.9c0.1,0.1,0.2,0.3,0.2,0.4
			c0,2.3,0,4.4,0,6.7c0,0.1,0,0.3-0.1,0.4C81.7,58.9,81.2,59.4,80.5,60.1"/>
	</g>
	<g id="Trazado_4652">
		<path class="st2" d="M99.6,60.8c-0.7,0.7-1.2,1.2-1.8,1.9c-0.1,0.1-0.2,0.1-0.3,0.1s-0.1,0-0.2,0c-2.2,0-4.3,0-6.6,0
			c-0.2,0-0.3,0-0.5-0.2c-0.6-0.6-1.1-1.1-1.8-1.8c0.1-0.1,0.1-0.2,0.2-0.2c0.5-0.5,1-1,1.5-1.5c0.1-0.2,0.3-0.2,0.6-0.2
			c2.3,0,4.4,0,6.7,0c0.2,0,0.4,0.1,0.5,0.2C98.5,59.7,99.1,60.3,99.6,60.8"/>
	</g>
	<g id="Trazado_4653">
		<path class="st2" d="M87.9,49.2c0.7,0.6,1.2,1.1,1.8,1.8c0.1,0.1,0.1,0.2,0.1,0.3c0,2.3,0,4.4,0,6.7c0,0.1,0,0.3-0.1,0.4
			c-0.6,0.6-1.1,1.2-1.8,1.8c-0.1-0.1-0.2-0.1-0.3-0.2c-0.5-0.5-0.9-0.9-1.4-1.4c-0.2-0.2-0.3-0.4-0.3-0.7c0-2.2,0-4.3,0-6.5
			c0-0.2,0.1-0.4,0.2-0.5C86.8,50.2,87.5,49.6,87.9,49.2"/>
	</g>
	<g id="Trazado_4654">
		<path class="st2" d="M88,47.5c-0.1-0.1-0.2-0.2-0.3-0.3c-0.5-0.5-0.9-0.9-1.4-1.4c-0.2-0.2-0.3-0.4-0.2-0.6c0-2.2,0-4.3,0-6.5
			c0-0.2,0.1-0.4,0.2-0.6c0.5-0.5,0.9-0.9,1.4-1.4c0.1-0.1,0.2-0.2,0.3-0.2c0.1,0.1,0.2,0.2,0.3,0.3c0.5,0.5,0.9,0.9,1.4,1.3
			c0.2,0.1,0.2,0.3,0.2,0.6c0,2.2,0,4.3,0,6.5c0,0.3-0.1,0.5-0.3,0.7C89.2,46.3,88.6,46.9,88,47.5"/>
	</g>
	<g id="Trazado_4655">
		<path class="st2" d="M100.3,36.4c0.7,0.7,1.2,1.2,1.8,1.8c0.1,0.1,0.1,0.3,0.1,0.4c0,1.9,0,3.9,0,5.7c0,0.2,0,0.4,0,0.6
			c0.1,0.4-0.1,0.8-0.4,1c-0.5,0.5-0.9,0.9-1.5,1.4c-0.1-0.1-0.2-0.1-0.3-0.2c-0.5-0.5-1-1-1.5-1.5c-0.2-0.1-0.2-0.3-0.2-0.6
			c0-1.8,0-3.5,0-5.3c0-0.5,0-0.9,0-1.4c0-0.1,0-0.2,0.1-0.3C99,37.8,99.5,37.1,100.3,36.4"/>
	</g>
	<g id="Trazado_4656">
		<path class="st2" d="M99.6,35.7c-0.1,0.1-0.2,0.2-0.3,0.3c-0.5,0.5-1,0.9-1.5,1.5c-0.1,0.1-0.2,0.2-0.4,0.2c-2.2,0-4.4,0-6.6,0
			c-0.2,0-0.5-0.1-0.6-0.3c-0.6-0.6-1-1.1-1.6-1.7c0.1-0.1,0.1-0.2,0.2-0.2c0.6-0.6,1-1,1.6-1.6c0.1-0.1,0.2-0.2,0.4-0.2
			c2.2,0,4.4,0,6.6,0c0.3,0,0.5,0.1,0.7,0.3C98.5,34.7,99.1,35.1,99.6,35.7"/>
	</g>
	<g id="Trazado_4657">
		<path class="st2" d="M100.3,60.1c-0.2-0.2-0.5-0.4-0.7-0.7c-0.4-0.4-0.8-0.8-1.1-1.1c-0.2-0.1-0.2-0.3-0.2-0.5c0-2.2,0-4.3,0-6.6
			c0-0.2,0.1-0.4,0.2-0.6c0.6-0.6,1.1-1.1,1.7-1.7c0.3,0.3,0.6,0.6,0.8,0.8c0.3,0.3,0.7,0.7,0.9,0.9c0.1,0.1,0.2,0.3,0.2,0.4
			c0,2.3,0,4.4,0,6.7c0,0.1,0,0.3-0.1,0.4C101.4,58.9,100.8,59.4,100.3,60.1"/>
	</g>
</g>
</svg>
